<svg xmlns="http://www.w3.org/2000/svg" viewBox="0 0 630 630"><path fill="#2e2e2c" d="M258.083 608.28s23.054-2.975 42.39 5.95c19.336 8.924 22.31 10.41 22.31 10.41s14.13 4.463 36.44-4.46c22.312-8.925 23.8-5.207 35.698-23.055 11.9-17.85 18.593-22.31 39.416-23.054 20.823-.743 21.567 0 27.517-3.718 5.95-3.718 34.953-46.852 51.314-52.058 16.36-5.206 39.416-5.206 42.39-9.668 2.975-4.462 8.18-17.848 16.36-20.08 8.182-2.23 8.926 2.232 10.413-12.642 1.487-14.874 11.9-22.31 11.9-22.31s-6.694-4.463-9.67-7.437c-2.974-2.975-7.436-10.412-7.436-10.412s4.462 1.487 9.668 6.693c5.206 5.206 2.23 5.206 7.437 4.462 5.205-.743 12.642-1.487 11.898-5.95-.744-4.46-.744-6.692 4.462-9.667 5.206-2.975-.744-2.23-.744-2.23l-3.718-1.49s11.9 1.49 11.9-2.23c0-3.718-13.572-8.17-13.572-8.17s16.696 2.762 16.696-1.314c0-4.076-2.235-.92-4.47-2.498-2.235-1.578-6.18-5.128-9.728-6.442-3.55-1.315-15.645-1.84-5.128-6.18 10.518-4.338 10.123 7.1 16.96 6.443 6.836-.658 8.545-8.81 8.808-9.335.263-.525-.394-.13.657-.92 1.053-.79-1.05-10.65-1.05-10.65s-2.498 6.18-4.207 5.26c-1.71-.92-1.184-10.386-1.184-10.386s-11.833-.79-18.406.395c-6.573 1.183 14.856-1.84 15.907-3.55 1.053-1.71 4.34-5.127 3.025-7.23-1.314-2.104-1.314-3.287-5.52-3.42-4.208-.13-10.52.133-10.52.133s7.363-2.367 7.758-3.68c.394-1.316-5.26-2.762-1.71-4.208 3.55-1.446 4.602-3.287 5.128-9.203.527-5.917.132-5.785 1.053-7.494.92-1.71.657-2.104-1.315-3.682-1.972-1.577-2.366-4.995-4.864-3.68-2.498 1.314-4.996.525-6.968-3.42-1.972-3.943 1.183-5.39-5.127-4.732-6.31.658-10.387.658-18.275-5.52-7.888-6.18-6.047-7.89-5.522-11.176.526-3.286 1.052-4.338-.394-4.47-1.447-.13-6.574 3.55-9.598 3.944-3.024.395-4.996.92-9.07 3.156-4.077 2.235-8.94 4.207-5.654-1.184 3.286-5.39-3.024-5.653 1.05-10.123 4.077-4.47 8.547-9.598 7.627-14.988-.92-5.39-4.47-15.776-7.1-14.198-2.63 1.578-3.944 6.573-8.15 4.733-4.207-1.84-3.024-1.052-6.048-1.183-3.024-.132-3.287-.79-3.418-3.55-.133-2.76 1.05-3.155-1.842-3.55-2.892-.394-8.94-.394-.394-5.784 8.545-5.39 8.15-8.414 8.15-9.597 0-1.183-5.784-6.18-2.366-9.203 3.42-3.024 5.522-2.63 9.992-5.784 4.47-3.156 12.62-7.1 9.203-7.23-3.42-.133-8.546 1.182-10.78.393-2.236-.79-3.42-1.84-8.81 2.497-5.39 4.34-.656 5.785-6.44 9.992-5.785 4.206-13.147 4.074-13.147 4.074s2.497 13.673-.79 12.62c-3.286-1.05-8.02-6.835-11.305-6.835-3.286 0-6.178 0-6.31-1.447-.13-1.447.79-3.024-.526-3.287-1.314-.263-4.207 1.315-1.183-6.048 3.025-7.362 2.63-8.413-.13-11.306-2.76-2.892-11.043-3.418-11.043-3.418s.788-11.043-4.076-12.226c-4.863-1.183-4.995-3.55-11.042.657-6.048 4.207-3.287 3.944-7.1 3.155-3.812-.79-3.943-3.023-7.624-1.577-3.68 1.446-3.024 1.446-3.024 3.023 0 1.578 2.76 6.31 2.76 9.203 0 2.89.264 6.047 1.578 10.253 1.315 4.207 5.522 11.438.526 17.09-4.996 5.654-15.776 10.913-19.588 10.78-3.813-.13-4.602-9.727-10.78-8.807-6.18.92-7.626-2.76-10.65 7.888-3.023 10.65-1.84 3.813-2.234 6.18-.395 2.365-2.104 13.803-10.386 13.54-8.283-.263-8.02-3.155-10.123-8.282-2.104-5.128-8.677-10.518-14.33-11.7-5.653-1.184-14.987-4.47-16.433-1.578-1.446 2.892-.526 14.46.657 18.142 1.183 3.68 4.6 6.18 4.6 11.437 0 5.26 2.63 4.47 2.236 3.287-.394-1.183.92-1.84 1.578.263.658 2.104 3.55 6.31 3.682 15.645.13 9.334 1.052 14.46.263 14.855-.79.395-5.522-11.437-6.442-16.564-.92-5.13-1.052-7.495-3.944-9.336-2.893-1.84-.79-7.1-6.048-9.465-5.26-2.368-8.414-3.156-8.414-3.156s.79-16.697-4.34-19.326c-5.126-2.63.527-1.052-3.022-4.075-3.55-3.024-5.39.92-5.39.92s1.577-3.944-.658-5.26c-2.235-1.313-2.498-2.76-4.996 1.58-2.497 4.337-2.892 4.337-2.892 4.337s.92-6.573-1.183-6.18c-2.103.396-6.31 4.34-7.1 6.05-.788 1.708-.262 7.755-5.915 7.887-5.653.13-12.227-.263-12.49 6.18-.262 6.44 1.972 4.206-1.314 6.572-3.287 2.365-3.68 0-1.052 6.31 2.63 6.31 3.944 5.915 4.733 13.146.788 7.23-.92 10.517-4.208 10.65-3.287.13-3.55-2.893-4.338-1.842-.79 1.052-5.39 2.367-6.18-.394-.788-2.76-2.234-12.884-4.732-14.593-2.498-1.71-5.39-.657-6.573-3.155-1.185-2.498-4.866-10.65-6.838-15.776-1.972-5.127-4.075-14.33-9.597-13.278-5.52 1.052-12.883 1.972-13.54 10.123-.658 8.152 6.835 22.48 6.704 34.708-.132 12.226 1.577 20.114-10.387 22.086-11.963 1.972-7.23-2.235-8.282-6.18-1.05-3.943-.92-8.018-10.254 2.368-9.334 10.386-9.597 16.96-8.94 21.823.658 4.864 2.893 13.804 1.71 13.936-1.183.132-5.785-13.54-6.574-13.146-.788.394-1.446-1.446-1.446 2.498s0 25.373-1.183 25.504c-1.183.132-2.76-.79-4.6-11.437-1.842-10.65-2.5-16.96-4.34-18.144-1.84-1.183-1.577-1.972-4.6-.394-3.025 1.577-3.42.92.262-3.813 3.68-4.733 5.39-13.016 2.498-14.068-2.892-1.05-6.442 3.024-6.442 3.024s6.246-6.18.92-7.493c-5.323-1.315-12.028-.592-13.277-8.35-1.25-7.755 2.892-1.84 6.113-.46 3.22 1.382 7.297 1.58 9.203-1.576 1.905-3.155 3.614-4.733-.856-6.902-4.47-2.17-.657-.658 1.447-2.235 2.104-1.578 5.26-4.6 5.982-9.597.723-4.996 2.3-8.085-1.774-10.123-4.076-2.038-3.024-.263-5.654-1.84-2.63-1.578-.723-1.973-4.14-1.644-3.42.33.328-1.25 4.798-2.235 4.47-.985 6.31-.985 3.418-4.797-2.892-3.813-3.418.46-5.587-.198-2.17-.657-5.588-2.3-3.353-3.615 2.235-1.315 1.906-3.155-.263-4.47-2.17-1.314-3.944-.526-4.207 2.3-.263 2.827-.723 4.34-1.38 4.076-.657-.263 1.643-4.14-1.052-3.944-2.695.198-3.22-.854-2.892-2.235.33-1.38.263-4.995-.46-5.39-.723-.394 0-1.117.46-2.103.46-.986.33-4.404-2.564-6.18-2.892-1.774-3.812-1.117-6.18-3.746-2.365-2.63-4.206-.33-4.206-.33s3.287-3.154 2.3-4.73c-.985-1.58-2.365-2.433-4.337-2.63-1.973-.198-2.5-2.827-3.156-1.25-.658 1.578-3.484 3.747-3.353 1.644.133-2.104.79-2.827-1.576-1.907-2.367.92-1.184-2.432-.79-5.455.395-3.024 1.38-3.353-.722-3.747-2.104-.395-1.118-.79-1.052-1.71.066-.92-1.906-2.168-2.17-3.22-.262-1.052-.657-.658-1.905-1.578-1.25-.92-.526-2.958-1.907-3.68-1.38-.724-3.484-3.88-4.207-1.25-.722 2.63-3.022-2.366-4.47-3.286-1.445-.922-3.68-3.88-4.337-.593-.657 3.287-1.446 2.3-2.366 3.55-.92 1.248-2.432.59-4.996-2.104-2.563-2.695-6.967-6.508-8.15-4.01-1.183 2.498-1.183 2.958-5.26 3.353-4.074.394-6.506-.197-4.468 3.418 2.037 3.615 3.418 5.982 1.71 6.836-1.71.855-3.748 0-5.13-.33-1.38-.327-3.745.462-.064 3.288 3.68 2.827 6.113 4.207 8.94 3.813 2.826-.394 9.136-6.507 9.465-5.85.33.658-3.287 3.88-1.183 4.47 2.103.592 2.826.395 3.878-.394 1.052-.79 3.813-2.432 3.352.59-.46 3.025-.59 3.55 2.958 3.814 3.55.263 6.245-1.84 6.245-.723s-3.68 3.812-2.76 4.14c.92.33 7.36-.656 6.178.264-1.182.92-4.206 1.842-4.732 2.5-.526.656-1.643 2.825-1.972 1.774-.328-1.052-9.728-4.996-12.95-4.667-3.22.328-4.93 2.037-6.507 2.235-1.578.197-4.273 2.366-1.973 5.324 2.3 2.958 7.23 7.362 12.16 9.4 4.93 2.038.79 3.55 3.42 3.024 2.628-.526 1.774 1.117 3.352 2.037 1.576.92 3.68 2.695 5.586 2.63 1.906-.066 4.207-.658 1.84 1.117-2.366 1.775-2.432 5.587-1.05 5.982 1.38.394 5.06 11.437 3.943 14.987-1.12 3.55-5.59 12.884-4.34 7.625 1.25-5.26 1.972-12.95-1.183-12.555-3.155.394-5.39 4.733-5.06 1.906.327-2.827-3.945-16.368-7.824-14.922-3.878 1.446-3.878 13.54-4.272 10.254-.394-3.286-.394-7.033-3.615-2.958-3.22 4.076 1.644-3.418-.13-5.127-1.776-1.71-4.01-.723-5.26.33-1.25 1.05 1.052-2.433.658-4.734-.395-2.3-.066-7.034-3.88-5.062-3.81 1.973-1.38-1.576-4.337-5.52-2.958-3.944-8.743-10.057-13.87-9.203-5.127.855-10.057 2.104-8.48 5.39 1.578 3.287 10.124 3.287 1.71 2.367-8.414-.92-6.902 2.76-4.34 5.916 2.565 3.155 12.885 10.583 6.772 8.15-6.113-2.432-15.12-9.202-16.696-4.995-1.578 4.207-.592 10.123 10.78 20.377 11.372 10.255 2.432 3.55-1.446 3.68-3.88.133-6.442-6.375-10.058-6.112-3.615.263-6.178-.197-3.22 7.888 2.958 8.085 5.587 10.583 12.883 12.226 7.298 1.644 17.815-.263 18.078 1.512.263 1.775 0 2.498-7.296 3.418-7.297.92-8.086-.394-7.757 2.235.33 2.63 5.653 4.864 5.39 6.244-.263 1.38.066 4.733-2.038 4.667-2.103-.065-3.352-2.3-4.207-.985-.854 1.315-1.38 1.512-2.826-2.827-1.446-4.338-3.287-6.573-7.165-8.545-3.88-1.972-16.697-13.54-18.8-12.423-2.104 1.117-3.024 3.286-1.447 8.15 1.578 4.865 3.418 8.283 7.034 10.65 3.615 2.366 5.718 4.403 4.404 4.666-1.314.263-10.517-4.995-11.174-3.418-.657 1.578 8.085 11.306 7.034 12.095-1.052.79-3.42.92-9.73-4.404-6.31-5.325-6.44-7.56-10.516-6.31-4.076 1.248-1.972 7.69-4.404 9.136-2.432 1.446-3.42.723-4.733 2.695-1.315 1.973-3.944 4.273-3.155 4.733.788.46 12.555-.328 15.973.79 3.418 1.117 12.358 3.746 13.015 5.126.657 1.38-.394 5.52 1.446 6.44 1.84.92 9.53 1.645 11.11.46 1.577-1.182 3.023-4.534 7.558-5.257 4.536-.723 8.283-1.775 9.27-2.695.985-.92.853-1.644 5.455-.066 4.6 1.577 6.638 1.183 7.098.13.46-1.05-.197-12.62 2.366-9.99 2.564 2.63 6.573 5.39 7.954 4.733 1.38-.658 2.76-7.23 4.273-6.31 1.512.92.987 3.55 2.038 3.023 1.052-.526 3.813-3.418 4.602-1.775.788 1.644-.132 6.836 2.235 5.456 2.366-1.38 4.995-.395 6.573 1.38 1.577 1.774 7.625-5.588 8.02-2.893.394 2.695-.066 7.494 1.97 6.77 2.04-.722 7.758-3.286 6.772-.985-.986 2.3-3.353 2.235-2.17 4.535 1.184 2.3 6.705 7.165 8.02 6.968 1.315-.197 1.38-.33 1.38-.33s4.142-10.45 7.428-8.938c3.287 1.512 5.85 1.643 6.376 5.52.526 3.88-2.76 1.645 1.184 2.828 3.944 1.183 9.662-.33 9.07 1.84-.59 2.17-1.84 1.183-6.572 3.155-4.733 1.972-5.982 1.512-7.23 3.287-1.25 1.775-6.05 3.484-8.415 5.26-2.365 1.774-5.192 4.01-8.61 4.47-3.418.46-4.8 5.455-7.1 6.835s-4.93 4.93-5.324 6.18c-.394 1.248-2.17 4.074.066 4.995 2.235.92 3.747-.92 7.23 1.183 3.485 2.103 11.9 6.376 18.077 5.784 6.178-.59 11.57-6.77 11.7-7.756.13-.986 2.63-5.522 5.06-2.498 2.434 3.024.264 5.72-.327 8.217-.592 2.497-3.09 7.625-2.695 11.24.394 3.615 0 2.695-.79 2.63-.788-.067-16.17.525-20.574-1.315-4.404-1.84-6.44-3.747-9.794-3.484-3.352.263-12.686 1.25-13.212 3.023-.526 1.776-1.052 4.143-2.76 3.354-1.71-.79-2.828-4.8-6.903-3.55-4.075 1.25-6.968 3.55-8.94 2.958-1.972-.59-1.775-1.972-4.075-.854-2.3 1.117-2.104.657-2.367 2.3-.262 1.644 2.498 5.39.986 4.405-1.512-.986-1.644-2.63-2.96-2.17-1.313.46-1.445 1.512-1.905 2.76-.46 1.25-.46-.13-.263-2.234s.986-6.903-1.05-5.72c-2.04 1.184-4.274-1.314-5.655 3.944-1.38 5.26.46 6.31-.657 6.048-1.117-.263-2.3-2.564-4.207-3.747-1.906-1.183-8.414-1.643-9.728-.263-1.315 1.38-5.325 5.26-8.94 5.062-3.615-.198-5.982-.395-8.48-3.353-2.497-2.957-8.15 1.71-8.676 2.433-.527.723.064 1.578-1.71 1.84-1.775.264-4.273-.788-2.104 5.128 2.17 5.917 3.813 13.41 10.65 14.857 6.835 1.446 8.15-1.578 10.91-4.536 2.76-2.957 3.945-3.81 7.56-2.497 3.615 1.315 4.733.46 6.245-1.05 1.512-1.513 3.287-1.448 14.66.985 11.37 2.432 18.93 2.497 20.836 3.812 1.907 1.315 5.982 3.024 7.56 2.038 1.577-.986 5.52-2.958 7.56-2.17 2.037.79 1.84 2.76 1.38 3.88-.46 1.116.394 4.797 2.103 5.652 1.708.854.328 3.352-.593 4.733-.92 1.38-5.52 1.446-.525 6.573 4.995 5.127 1.972 8.743 2.037 9.794.065 1.052-.92 4.602 1.577 1.446 2.498-3.155 4.733 4.01 5.52 7.1.79 3.09 2.105 5.587 5.26 3.615 3.155-1.97 2.366-5.455 5.587-6.704 3.22-1.25 4.93-1.183 7.954-3.615 3.024-2.43 7.757-4.47 5.85.132-1.906 4.602-6.507 3.944-8.085 6.376-1.577 2.433-5.587 6.574-6.244 10.386-.66 3.813-1.12 4.14 0 5.456 1.116 1.315 4.666-1.315 1.905 1.643-2.76 2.958-6.442 5.785-4.733 7.23 1.71 1.447 3.878 2.696 7.56 1.776 3.68-.92 7.953-5.85 9.99-6.97 2.038-1.116 3.09-5.52 12.096-3.81 9.005 1.708 7.69 1.182 5.06 2.43-2.628 1.25-1.905 1.447-5.85 1.184-3.943-.263-4.535 1.25-5.39 2.038-.854.788-1.182 1.84-4.403 2.695-3.22.854-9.072 9.465-9.072 10.123 0 .657-.92 1.446 2.958 3.418 3.88 1.972 5.852 6.442 3.222 7.56-2.63 1.117-9.99 1.577-9.99 2.694 0 1.118 1.248 4.667-.395 4.733-1.644.066-3.024-.79-3.682 2.17-.657 2.957 1.447 3.746-2.563 4.6-4.01.855-7.56 3.88-9.597 3.55-2.038-.33-5.193-1.972-9.07 1.906-3.88 3.88-5.917 3.222-6.575 2.894-.657-.33-2.432.788-4.535-5.193-2.104-5.98-5.85-9.662-7.362-7.887-1.512 1.774-1.775 4.14-2.104 8.282-.33 4.14-3.025 5.39-.592 6.573 2.432 1.184 2.76 2.104 1.248 4.8-1.51 2.694-2.826 3.483-2.366 5.258.46 1.774.92 2.695.263 4.995-.657 2.302-2.827 4.077 1.446 4.734 4.272.657 11.437-.986 13.343-1.512 1.906-.526 5.785-4.14 12.226-2.103 6.44 2.036 8.808 1.182 10.648 1.248 1.84.065 10.255 0 11.635-.79 1.38-.788 4.47-3.68 6.31-1.248 1.84 2.432 3.09 5.522 8.677 4.798 5.587-.723 4.733-1.314 8.94-1.71 4.207-.393 3.484-1.51 4.864-2.694 1.38-1.183 2.892-2.498 9.334-.394 6.442 2.103 5.325 2.826 8.677 4.14 3.352 1.316 22.218 16.434 22.218 16.434z"/><path fill="#f3df49" d="M165.65 526.474l48.212-29.178c9.302 16.492 17.763 30.444 38.058 30.444 19.454 0 31.72-7.61 31.72-37.21v-201.3h59.202v202.137c0 61.32-35.943 89.232-88.385 89.232-47.36 0-74.852-24.53-88.807-54.13M375 520.13l48.206-27.91c12.69 20.722 29.183 35.946 58.36 35.946 24.533 0 40.175-12.265 40.175-29.18 0-20.3-16.067-27.49-43.134-39.327l-14.797-6.35c-42.716-18.18-71.05-41.016-71.05-89.226 0-44.404 33.83-78.238 86.694-78.238 37.637 0 64.702 13.11 84.154 47.366l-46.097 29.602c-10.15-18.183-21.14-25.372-38.056-25.372-17.34 0-28.335 10.995-28.335 25.372 0 17.762 10.995 24.952 36.366 35.948l14.8 6.343c50.325 21.57 78.66 43.557 78.66 93.034 0 53.286-41.866 82.464-98.11 82.464-54.976 0-90.5-26.218-107.836-60.474"/></svg>