<svg xmlns="http://www.w3.org/2000/svg" width="332" height="294"><path fill="#006AD4" d="M60.5 140a59.3 59.3 0 0 1 59.5 59v59H96.7v-59a36 36 0 0 0-36.2-35.9A36 36 0 0 0 24.3 199v59H1v-60.4c.8-32 27.1-57.6 59.5-57.6zM142 57.6A59 59 0 0 1 201 0v23.1A36 36 0 0 0 165.1 59v59H142V57.6zm190 0V118h-23.3V57.6A36 36 0 0 0 272.4 23a36 36 0 0 0-36.1 36A36 36 0 0 0 297 85.4v27.4A59.6 59.6 0 0 1 213 59c0-32.6 26.6-59 59.5-59A59.3 59.3 0 0 1 332 57.6zm-213 0V118H95.7V57.6A36 36 0 0 0 59.4 23a36 36 0 0 0-36.1 36A36 36 0 0 0 84 85.4v27.4A59.6 59.6 0 0 1 0 59C0 26.4 26.6 0 59.5 0A59.3 59.3 0 0 1 119 57.6zm213 140V258h-23.3v-60.4a36 36 0 0 0-36.2-34.5 36 36 0 0 0-36.2 35.9 36 36 0 0 0 60.7 26.4v27.4a59.6 59.6 0 0 1-84-53.8c0-32.6 26.6-59 59.5-59a59.3 59.3 0 0 1 59.5 57.6zM177.9 140H190v83a71 71 0 0 1-70.8 71H96v-23.3h23.3a47.7 47.7 0 0 0 47.5-47.8v-59.4H143V140h34.9z"/></svg>