<?xml version="1.0" encoding="utf-8"?>
<svg version="1.1" id="Layer_1" xmlns="http://www.w3.org/2000/svg" xmlns:xlink="http://www.w3.org/1999/xlink" x="0px" y="0px"
	 viewBox="0 0 256 256" style="enable-background:new 0 0 256 256;" xml:space="preserve">
<rect style="fill:#369FD4;" width="256" height="256"/>
<g>
	<path style="fill:#FFFFFF;" d="M73.7,137.9c-16.5,0-29.9,13.2-30.2,29.5h0v0.7c0,0,0,0,0,0v30.3h11.9v-30.3
		c0-10.1,8.3-18.4,18.4-18.4c10.1,0,18.4,8.2,18.4,18.4v30.3H104v-30.3C104,151.5,90.4,137.9,73.7,137.9"/>
	<path style="fill:#FFFFFF;" d="M115.9,87.1L115.9,87.1l0,31h11.9V87.8c0-10.1,8.2-18.4,18.4-18.4V57.5
		C129.6,57.5,116.2,70.7,115.9,87.1"/>
	<path style="fill:#FFFFFF;" d="M212.5,87.1c-0.4-16.4-13.8-29.5-30.2-29.5c-16.7,0-30.3,13.5-30.3,30.3c0,16.7,13.5,30.3,30.3,30.3
		c4.4,0,8.7-1,12.5-2.7v-14.1c-3.3,3-7.7,4.9-12.5,4.9c-10.1,0-18.4-8.2-18.4-18.4c0-10.1,8.2-18.4,18.4-18.4
		c9.9,0,18,7.9,18.4,17.7h0v0.7c0,0,0,0,0,0c0,0,0,0,0,0v24h0v6.2h11.9L212.5,87.1L212.5,87.1z"/>
	<path style="fill:#FFFFFF;" d="M104,87.1c-0.4-16.4-13.8-29.5-30.2-29.5c-16.7,0-30.3,13.5-30.3,30.3c0,16.7,13.5,30.3,30.3,30.3
		c4.4,0,8.7-1,12.5-2.7v-14.1c-3.3,3-7.7,4.9-12.5,4.9c-10.1,0-18.4-8.2-18.4-18.4c0-10.1,8.2-18.4,18.4-18.4
		c9.9,0,18,7.9,18.4,17.7h0v24.7v6.2H104L104,87.1L104,87.1z"/>
	<path style="fill:#FFFFFF;" d="M212.5,167.4c-0.4-16.4-13.8-29.5-30.2-29.5c-16.7,0-30.3,13.5-30.3,30.3
		c0,16.7,13.5,30.3,30.3,30.3c4.4,0,8.7-1,12.5-2.7v-14.1c-3.3,3-7.7,4.9-12.5,4.9c-10.1,0-18.4-8.2-18.4-18.4
		c0-10.1,8.2-18.4,18.4-18.4c9.9,0,18,7.9,18.4,17.7h0v31h11.9L212.5,167.4L212.5,167.4z"/>
	<path style="fill:#FFFFFF;" d="M116.1,137.9v12h12.1l0,5.8v24.4c0,13.4-10.9,24.3-24.3,24.3l-11.9,0v11.9H104
		c20,0,36.2-16.2,36.2-36.2v-42.2H116.1z"/>
</g>
</svg>
