<svg xmlns="http://www.w3.org/2000/svg" viewBox="0 0 175 200" preserveAspectRatio="xMinYMin" enable-background="new 0 0 175 200"><path d="M174,152.1v-10.3l-3.2-5.9v20C172.2,155.2,173.7,153.7,174,152.1z"/><path d="M164.6,124.3v33.4c1,0,2-0.1,3.2-0.4v-27.1L164.6,124.3z"/><path d="M158.3,112.6v43.3c0.9,0.5,2,1,3.2,1.3v-38.8L158.3,112.6z"/><path d="M152,100.9v46.7l2.6,5.3c0,0,0.2,0.2,0.5,0.5v-46.7L152,100.9z"/><polygon points="148.8,141.4 148.8,95.1 145.7,89.2 145.7,135.1 148.8,141.4"/><polygon points="140.8,129.7 142.5,128.9 142.5,83.4 139.4,77.5 139.4,130.3 140.8,129.7"/><polygon points="133.1,108.6 133.1,133.1 136.2,131.7 136.2,71.7 133.1,65.9 133.1,107.9 133.1,108.6"/><g><polygon points="129.9,60 126.8,54.2 126.8,96.2 129.9,102.1 129.9,60"/><polygon points="129.9,109.9 126.8,111.3 126.8,135.9 129.9,134.5 129.9,109.9"/></g><g><polygon points="123.6,48.3 120.5,42.5 120.5,84.5 123.6,90.4 123.6,48.3"/><polygon points="123.6,112.7 120.5,114.1 120.5,138.8 123.6,137.3 123.6,112.7"/></g><g><polygon points="117.4,36.7 114.2,30.8 114.2,72.8 117.4,78.7 117.4,36.7"/><polygon points="117.4,115.5 114.2,116.9 114.2,141.6 117.4,140.2 117.4,115.5"/></g><g><polygon points="111.1,118.3 107.9,119.7 107.9,144.3 111.1,142.9 111.1,118.3"/><polygon points="111.1,25 107.9,19.1 107.9,61.1 111.1,67 111.1,25"/></g><g><path d="M104.8,13.3l-3.1-5.8c0,0,0,0,0,0v42l3.2,5.9V13.3L104.8,13.3z"/><polygon points="104.8,121 101.6,122.4 101.6,147.2 104.8,145.8 104.8,121"/></g><path d="M92.1,0h-8.5c-4.2,0-8,3-9.8,7.4L1.3,142.8c0,0-5,9.7,3.2,14.2c8.1,4.5,13.9-0.4,15.9-4.2c2-3.8,12.5-23.5,12.5-23.5 l43.3,19.2v36.6v0.6c0.1,2.4,1,11.2,10.8,11.2c10.7,0,11.1-10.6,11.1-10.6V3.1C96.7,1,94.5,0,92.1,0z M76.2,123.7l-34.9-15.4 l34.9-64.8V123.7z"/></svg>