<?xml version="1.0" encoding="UTF-8"?>
<svg width="616px" height="190px" viewBox="0 0 616 190" version="1.1" xmlns="http://www.w3.org/2000/svg" xmlns:xlink="http://www.w3.org/1999/xlink">
    <!-- Generator: Sketch 43.1 (39012) - http://www.bohemiancoding.com/sketch -->
    <title>Artboard</title>
    <desc>Created with Sketch.</desc>
    <defs></defs>
    <g id="Page-1" stroke="none" stroke-width="1" fill="none" fill-rule="evenodd">
        <g id="Artboard" fill-rule="nonzero" fill="#000000">
            <path d="M74.8,131.3 L67.5,97.1 L67.5,131.3 L53,131.3 L53,58.9 L67.5,58.9 L67.5,92.9 L75.6,58.9 L90.6,58.9 L81.1,94.5 L90.2,131.3 L74.8,131.3 L74.8,131.3 Z M117.1,132 L107.8,132 C98.8,132 94.3,127.5 94.3,118.5 L94.3,71.7 C94.3,62.7 98.8,58.2 107.8,58.2 L117.1,58.2 C126.1,58.2 130.6,62.7 130.6,71.7 L130.6,118.5 C130.5,127.5 126.1,132 117.1,132 L117.1,132 Z M113.5,70.7 L111.4,70.7 C109.6,70.7 108.8,71.5 108.8,73.3 L108.8,117 C108.8,118.8 109.6,119.6 111.4,119.6 L113.5,119.6 C115.3,119.6 116.1,118.8 116.1,117 L116.1,73.3 C116,71.5 115.2,70.7 113.5,70.7 Z M172.2,105.2 L172.2,118.6 C172.2,127.6 167.7,132.1 158.7,132.1 L150.6,132.1 C141.6,132.1 137.1,127.6 137.1,118.6 L137.1,103.2 L151.3,103.2 L151.3,117.3 C151.3,119.1 152.1,119.9 153.9,119.9 L155.2,119.9 C157,119.9 157.8,119.1 157.8,117.3 L157.8,108.6 C157.8,106.3 157.1,105.2 155.3,103.9 L142.9,94.7 C138.4,91.5 137.1,88.5 137.1,83.3 L137.1,71.8 C137.1,62.8 141.6,58.3 150.6,58.3 L158.5,58.3 C167.5,58.3 172,62.8 172,71.8 L172,85 L157.8,85 L157.8,73.1 C157.8,71.3 157,70.5 155.2,70.5 L154.1,70.5 C152.3,70.5 151.5,71.3 151.5,73.1 L151.5,79.9 C151.5,82.2 152.2,83.3 154,84.6 L166.4,93.8 C170.8,97 172.2,99.8 172.2,105.2 L172.2,105.2 Z M203.7,102.7 L208.1,58.9 L229.1,58.9 L229.1,131.3 L214.8,131.3 L214.8,83.8 L209.3,131.3 L195.7,131.3 L190.2,83.3 L190.2,131.3 L178.6,131.3 L178.6,58.9 L199.5,58.9 L203.7,102.7 L203.7,102.7 Z M258.9,132 L249.6,132 C240.6,132 236.1,127.5 236.1,118.5 L236.1,71.7 C236.1,62.7 240.6,58.2 249.6,58.2 L258.9,58.2 C267.9,58.2 272.4,62.7 272.4,71.7 L272.4,118.5 C272.4,127.5 267.9,132 258.9,132 L258.9,132 Z M255.3,70.7 L253.2,70.7 C251.4,70.7 250.6,71.5 250.6,73.3 L250.6,117 C250.6,118.8 251.4,119.6 253.2,119.6 L255.3,119.6 C257.1,119.6 257.9,118.8 257.9,117 L257.9,73.3 C257.9,71.5 257,70.7 255.3,70.7 Z M314,105.2 L314,118.6 C314,127.6 309.5,132.1 300.5,132.1 L292.4,132.1 C283.4,132.1 278.9,127.6 278.9,118.6 L278.9,103.2 L293.1,103.2 L293.1,117.3 C293.1,119.1 293.9,119.9 295.7,119.9 L297,119.9 C298.8,119.9 299.6,119.1 299.6,117.3 L299.6,108.6 C299.6,106.3 298.9,105.2 297.1,103.9 L284.7,94.7 C280.2,91.5 278.9,88.5 278.9,83.3 L278.9,71.8 C278.9,62.8 283.4,58.3 292.4,58.3 L300.3,58.3 C309.3,58.3 313.8,62.8 313.8,71.8 L313.8,85 L299.6,85 L299.6,73.1 C299.6,71.3 298.8,70.5 297,70.5 L295.9,70.5 C294.1,70.5 293.3,71.3 293.3,73.1 L293.3,79.9 C293.3,82.2 294,83.3 295.8,84.6 L308.2,93.8 C312.6,97 314,99.8 314,105.2 L314,105.2 Z M365,125.4 C362.7,129.9 359.7,131.9 353.6,131.9 L348.1,131.9 C339.7,131.9 335.5,127.7 335.5,119.3 L335.5,104.7 C335.5,99.6 336.6,95.7 340.4,92.5 L344.4,89 L342,84.7 C339.8,80.7 339.5,78.2 339.5,74 L339.5,71.7 C339.5,62.7 344,58.2 353,58.2 L359.2,58.2 C368.2,58.2 372.7,62.7 372.7,71.7 L372.7,81.3 L359.3,81.3 L359.3,73.1 C359.3,71.3 358.5,70.5 356.7,70.5 L355.7,70.5 C353.9,70.5 353.1,71.3 353.1,73.1 L353.1,74.6 C353.1,77.3 353.8,79.1 355.2,81.5 L364.2,98.1 L367.3,88.4 L381.5,88.4 L372.9,112.3 L383.3,131.3 L368.4,131.3 L365,125.4 L365,125.4 Z M356.3,117.7 L357.9,113.8 L351,101.2 C349.7,102.4 349.2,103.6 349.2,105.9 L349.2,117.8 C349.2,119.4 349.9,120.1 351.5,120.1 L353.4,120.1 C354.8,120 355.7,119.3 356.3,117.7 Z M541.8,58.7 L549.1,93 L549.1,58.7 L563.6,58.7 L563.6,131.2 L549.1,131.2 L549.1,97.1 L541,131.2 L526,131.2 L535.5,95.6 L526.4,58.7 L541.8,58.7 L541.8,58.7 Z M485.6,58.7 L500,58.7 L501.1,69.3 L510.2,69.3 L511.2,58.7 L524.3,58.7 L514.8,131.2 L495,131.2 L485.6,58.7 L485.6,58.7 Z M508.9,81.9 L502.4,81.9 L505.7,113.6 L508.9,81.9 Z M458.4,58.1 L467.7,58.1 C476.7,58.1 481.2,62.6 481.2,71.6 L481.2,118.4 C481.2,127.4 476.7,131.9 467.7,131.9 L458.4,131.9 C449.4,131.9 444.9,127.4 444.9,118.4 L444.9,71.6 C445,62.5 449.4,58.1 458.4,58.1 L458.4,58.1 Z M462,119.4 L464.1,119.4 C465.9,119.4 466.7,118.6 466.7,116.8 L466.7,73.1 C466.7,71.3 465.9,70.5 464.1,70.5 L462,70.5 C460.2,70.5 459.4,71.3 459.4,73.1 L459.4,116.8 C459.5,118.5 460.3,119.4 462,119.4 Z M403.3,84.9 L403.3,71.5 C403.3,62.5 407.8,58 416.8,58 L424.9,58 C433.9,58 438.4,62.5 438.4,71.5 L438.4,86.9 L424.2,86.9 L424.2,72.9 C424.2,71.1 423.4,70.3 421.6,70.3 L420.3,70.3 C418.5,70.3 417.7,71.1 417.7,72.9 L417.7,81.6 C417.7,83.9 418.4,85 420.2,86.3 L432.6,95.5 C437.1,98.7 438.4,101.7 438.4,106.9 L438.4,118.4 C438.4,127.4 433.9,131.9 424.9,131.9 L417,131.9 C408,131.9 403.5,127.4 403.5,118.4 L403.5,105.2 L417.7,105.2 L417.7,117.1 C417.7,118.9 418.5,119.7 420.3,119.7 L421.4,119.7 C423.2,119.7 424,118.9 424,117.1 L424,110.3 C424,108 423.3,106.9 421.5,105.6 L409.1,96.4 C404.7,93.1 403.3,90.3 403.3,84.9 L403.3,84.9 Z M53.4,143 L312.8,143 L312.8,153 L53.4,153 L53.4,143 Z M402.5,37 L563.8,37 L563.8,47 L402.5,47 L402.5,37 Z" id="Shape"></path>
        </g>
    </g>
</svg>