<?xml version="1.0" encoding="utf-8"?>
<!-- Generator: Adobe Illustrator 22.0.1, SVG Export Plug-In . SVG Version: 6.00 Build 0)  -->
<svg version="1.1" id="Layer_1" xmlns="http://www.w3.org/2000/svg" xmlns:xlink="http://www.w3.org/1999/xlink" x="0px" y="0px"
	 viewBox="0 0 779.8 237.8" style="enable-background:new 0 0 779.8 237.8;" xml:space="preserve">
<style type="text/css">
	.st0{fill:#E85708;}
	.st1{fill:#0A9E9C;}
	.st2{fill:#24A6CC;}
</style>
<path d="M132.9,36.1c-24.7,0-44.8,20.1-44.8,44.8c0,24.9,20.1,45,44.8,45c24.7,0,44.8-20.1,44.8-44.8
	C177.7,56.2,157.6,36.1,132.9,36.1 M132.2,161.9c-22.8,0-42.3-7.9-57.7-23.6c-15.4-15.4-23.3-35.1-23.3-58.5c0-22,8-41.1,23.8-56.5
	C90.8,7.8,110.2,0,132.8,0c22.7,0,42.3,7.9,58.1,23.4c15.7,15.6,23.6,35,23.6,57.6c0,22.8-8,42.3-23.8,57.7
	C175,154.1,155.3,161.9,132.2,161.9"/>
<path d="M646.9,36.1c-24.7,0-44.8,20.1-44.8,44.8c0,24.9,20.1,45,44.8,45c24.7,0,44.8-20.1,44.8-44.8
	C691.7,56.2,671.6,36.1,646.9,36.1 M646.2,161.9c-22.8,0-42.3-7.9-57.7-23.6c-15.4-15.4-23.3-35.1-23.3-58.5c0-22,8-41.1,23.8-56.5
	C604.7,7.8,624.2,0,646.8,0c22.7,0,42.3,7.9,58.1,23.4c15.7,15.6,23.6,35,23.6,57.6c0,22.8-8,42.3-23.8,57.7
	C688.9,154.1,669.2,161.9,646.2,161.9"/>
<path d="M333.1,91.3V7.8c0-2.1,1.7-3.8,3.8-3.8H372c2.1,0,3.8,1.7,3.8,3.8v83.5c0,2.1-1.7,3.8-3.8,3.8h-35.1
	C334.8,95.2,333.1,93.5,333.1,91.3"/>
<path d="M469.7,36.2c-23.8,0.4-43.5,20.1-43.9,43.9c-0.2,12.1,4.3,23.6,12.8,32.2c8.5,8.6,19.8,13.4,32,13.4l0.9,0
	c23.8-0.4,43.5-20.1,43.9-43.9c0.2-12.1-4.3-23.6-12.8-32.2c-8.5-8.6-19.8-13.4-32-13.4L469.7,36.2z M477.4,237.8
	c-20.3,0-37.3-5.6-50.6-16.6c-13.7-11.4-21.7-27.3-23.8-47.3l-0.1-1.2c-0.1-1.4,1-2.6,2.4-2.6h36.1c1.1,0,2.1,0.8,2.3,2l0.2,0.9
	c1.2,6.6,3.2,11.8,5.8,15.2c6.4,8.3,15.6,12.4,28,12.4c22.7,0,33.8-13.8,33.8-42.2v-2.9c0-1.8-1.8-2.9-3.4-2.1
	c-11.4,5.7-24.2,8.6-38.2,8.6c-22.8,0-42.3-7.9-57.7-23.6c-15.4-15.4-23.3-35.1-23.3-58.5c0-22,8-41.1,23.8-56.5
	C428.4,7.8,447.8,0,470.4,0c13.7,0,26.3,2.9,37.6,8.6c1.6,0.8,3.4-0.3,3.4-2.1c0-1.3,1.1-2.4,2.4-2.4h36c1.3,0,2.4,1.1,2.4,2.4
	v144.3c0,7-0.2,13.2-0.7,18.6c-0.5,5.4-1.1,10.2-1.9,14.3c-2.5,11.6-7.6,21.7-15,30.1C520.8,229.7,501.5,237.8,477.4,237.8"/>
<path class="st0" d="M354.2,158.4c-14.1,0-25.6-11.5-25.6-25.6c0-14.1,11.5-25.6,25.6-25.6s25.6,11.5,25.6,25.6
	C379.8,146.9,368.3,158.4,354.2,158.4"/>
<path class="st1" d="M754.2,158.4c-14.1,0-25.6-11.5-25.6-25.6c0-14.1,11.5-25.6,25.6-25.6c14.1,0,25.6,11.5,25.6,25.6
	C779.8,146.9,768.3,158.4,754.2,158.4"/>
<path class="st2" d="M25.6,158.4C11.5,158.4,0,146.9,0,132.8c0-14.1,11.5-25.6,25.6-25.6c14.1,0,25.6,11.5,25.6,25.6
	C51.2,146.9,39.7,158.4,25.6,158.4"/>
<path d="M268.5,10.4c0,1.8,1.9,2.9,3.4,2.1C283.2,6.9,295.8,4,309.5,4c2.3,0,4.8,0.1,7.6,0.3h0c1.8,0.1,3.2,1.6,3.2,3.4v29.6
	c0,2.1-1.9,3.7-4,3.4c-2-0.3-4-0.5-6-0.5h-1.8c-22,0.4-40,19.1-40,41.7v72.7c0,1.9-1.5,3.4-3.4,3.4h-33.9c-1.9,0-3.4-1.5-3.4-3.4
	V7.8c0-1.9,1.5-3.4,3.4-3.4H265h1.1c1.3,0,2.4,1.1,2.4,2.4V10.4z"/>
</svg>
