<svg version="1.1" id="svg-logo" class="svg svg-logo" xmlns="http://www.w3.org/2000/svg" xmlns:xlink="http://www.w3.org/1999/xlink" x="0px" y="0px"
   viewBox="0 0 314 109.2" xml:space="preserve" style="fill:#5bb16e">
  <g>
    <polygon points="266,61.2 266,85.2 290,85.2 290,109.2 314,109.2 314,61.2    "/>
    <path d="M305.6,11.5c-2.5-1.7-5.1-3.2-7.8-4.5c-9.2-4.6-19.4-7-29.8-7c-17.7,0-33.8,6.9-45.9,18.1l5.5-16.9h-25
      L180,70.7L157.4,1.2h-22.9l-22.6,69.4L89.3,1.2L0,1.2v24h26v84h26v-84h20.1l27.3,84h24.9L146,43.4l21.5,65.8h25l9.4-29.1l0,0
      c2.1,10.6,6.7,20.6,13.5,29.1H242v-7c-10.8-8.1-17.6-20.9-17.6-34.9c0-24,19.5-43.5,43.5-43.5c7.9,0,15.6,2.1,22.3,6.2
      c0.7,0.4,1.3,0.8,2,1.2l0.7,0.5L306.3,12L305.6,11.5z"/>
  </g>
</svg>
