<?xml version="1.0" encoding="utf-8"?>
<!-- Generator: Adobe Illustrator 18.1.0, SVG Export Plug-In . SVG Version: 6.00 Build 0)  -->
<!DOCTYPE svg PUBLIC "-//W3C//DTD SVG 1.1//EN" "http://www.w3.org/Graphics/SVG/1.1/DTD/svg11.dtd">
<svg version="1.1" id="Layer_1" xmlns="http://www.w3.org/2000/svg" xmlns:xlink="http://www.w3.org/1999/xlink" x="0px" y="0px"
	 viewBox="0 0 285 41.9" enable-background="new 0 0 285 41.9" xml:space="preserve">
<g>
	<path fill="#0C68B3" d="M-0.1,9.2h5.4l4.8,20.6h0.1l4.4-20.6h7l4.6,20.6h0.1l4.8-20.6h5L29.5,35h-6.7l-4.7-20.6h-0.1L13.5,35H6.8
		L-0.1,9.2z"/>
	<path fill="#0C68B3" d="M55.2,35h-4.7v-2.6h-0.1c-1.5,1.9-3.7,3-6.3,3c-4.5,0-6.5-3.2-6.5-7.5v-12h5v10.2c0,2.3,0,5.5,3.2,5.5
		c3.6,0,4.4-3.9,4.4-6.3v-9.3h5V35z"/>
	<path fill="#0C68B3" d="M66,21.6L58.3,9.2h6l5.4,9.2l5.5-9.2h5.6L73,21.6L81.5,35h-6.1l-6-10.1l-6,10.1h-5.8L66,21.6z"/>
	<rect x="83.9" y="9.2" fill="#0C68B3" width="5" height="4.7"/>
	<rect x="83.9" y="15.9" fill="#0C68B3" width="5" height="19.1"/>
	<g>
		<path fill="#221F1F" d="M93,9.2h6.4l9.8,19.3h0.1V9.2h5V35h-6.3l-9.9-19.3H98V35h-5V9.2z"/>
		<path fill="#221F1F" d="M133.6,33.9c-1.8,1-3.9,1.5-6.5,1.5c-6.3,0-10-3.6-10-9.9c0-5.5,2.9-10.1,8.8-10.1c7.1,0,9.1,4.8,9.1,11.5
			h-13.2c0.2,3.1,2.4,4.8,5.4,4.8c2.4,0,4.5-0.9,6.3-1.9V33.9z M130.2,23.6c-0.1-2.4-1.3-4.5-4-4.5c-2.8,0-4.2,1.9-4.4,4.5H130.2z"
			/>
		<path fill="#221F1F" d="M135.5,15.9h5.8l3.7,6.2l3.7-6.2h5.3l-5.7,9.1l6.4,10h-5.9l-4.3-7.1l-4.3,7.1h-5.4l6.5-10L135.5,15.9z"/>
		<path fill="#221F1F" d="M159.8,19.6h-3.7v-3.6h3.7v-3.8l5-1.6v5.4h4.4v3.6h-4.4v8.9c0,1.6,0.4,3.1,2.3,3.1c0.9,0,1.7-0.2,2.3-0.5
			l0.1,3.9c-1,0.3-2.2,0.4-3.7,0.4c-3.9,0-6-2.4-6-6.2V19.6z"/>
		<path fill="#221F1F" d="M191.9,34.6c-1.9,0.4-3.9,0.8-5.9,0.8c-8.4,0-14.2-4.2-14.2-12.9c0-8.8,5.4-13.8,14.2-13.8
			c1.7,0,4,0.3,5.8,1.1l-0.4,4.4c-2-1.1-3.7-1.4-5.6-1.4c-5.3,0-8.7,4.1-8.7,9.4c0,5.3,3.3,9.2,8.8,9.2c2,0,4.4-0.4,5.7-1.1
			L191.9,34.6z"/>
	</g>
	<g>
		<path fill="#E7C31F" d="M221,32.4c2.7-1.2,5.3-3.1,7.2-5.3c1.3-3.9-0.4-8.3-1.6-11.4c-2.1-5.4-8.8-6.1-13.8-4.7
			c-0.4,0.1-0.7,0.2-1.1,0.4c-11,6.1-6.8,14.8-3.9,20.2C211.1,34.7,216.8,34.3,221,32.4z M206.7,23.9c-1.1-3.9-0.6-9.1,3.6-10.8
			c4.3-1.6,11.4-4.4,14.7,5.7c1.2,3.2,2.1,6.6-0.8,10c-2.8,3.3-7,4.4-10.3,3.6C210.5,31.6,207.8,27.8,206.7,23.9z"/>
		<path fill="#EF4036" d="M210.9,6.5c0.5-0.3,0.9-0.6,1.4-0.8c3.9-2.1,8.9-3.4,13.2-2.7c-8.4-6.6-17.3-0.8-22.9,2.9
			c-3.4,2.2-4.9,5.6-5.2,9.3C199.2,10.8,202.9,7.1,210.9,6.5z"/>
		<path fill="#8CC63F" d="M221.3,8c0.9,0.4,1.8,0.8,2.6,1.4c4,2.7,5.7,9.1,5.2,15c0,0.5-0.1,1.1-0.2,1.7c1-1.5,1.7-3,1.8-4.6
			c0.4-4.5-1.6-9.7-6.5-12.7c-0.3-0.2-0.6-0.4-0.9-0.5C222.7,8,222,8,221.3,8z"/>
		<path fill="#8CC63F" d="M200.6,27.9c-0.1-0.1-0.2-0.3-0.2-0.4c-1.9-3.6-3.2-8.1-2.9-12.2c-1.6,3.9-1.5,8.5-1.5,12
			c0.1,7.2,6.9,11.2,13.7,12.4C204.9,36.7,201.9,32.4,200.6,27.9z"/>
		<path fill="#8CC63F" d="M230.8,21.4c-0.1,1.6-0.8,3.1-1.8,4.6c-0.5,3.3-1.9,6.7-4.3,8.8c4.8-2.4,9-6.5,9.5-11
			c0.5-4.8-1.7-10.5-6.8-13.9c-1.4-0.9-2.7-1.5-4-1.7c0.3,0.2,0.6,0.3,0.9,0.5C229.2,11.7,231.2,16.9,230.8,21.4z"/>
		<path fill="#8CC63F" d="M200.3,27.4c0.1,0.1,0.2,0.3,0.2,0.4c-0.5-1.8-0.8-3.6-0.8-5.4c0-6,5-12.2,11.2-15.9
			c-8,0.6-11.7,4.3-13.5,8.7C197.1,19.3,198.4,23.8,200.3,27.4z"/>
		<path fill="#DA3B28" d="M219.2,34.5c5.5-1.8,8-4.4,9-7.4c-1.8,2.2-4.4,4-7.2,5.3c-4.2,1.9-9.9,2.4-13.2-0.7
			c0.1,0.1,0.1,0.2,0.2,0.4c1,1.9,2.5,3.2,4.3,3.9C214.6,36,216.9,35.3,219.2,34.5z"/>
		<path fill="#85A640" d="M226.5,15.7c1.2,3.1,2.9,7.5,1.6,11.4c0.3-0.4,0.6-0.7,0.9-1.1c0.1-0.6,0.2-1.1,0.2-1.7
			c0.4-5.8-1.3-12.3-5.2-15c-0.8-0.5-1.7-1-2.6-1.4c-2.8,0-5.4,1.2-7.9,2.5c-0.6,0.3-1.2,0.6-1.8,0.9c0.4-0.1,0.7-0.3,1.1-0.4
			C217.7,9.6,224.4,10.2,226.5,15.7z"/>
		<path fill="#85A640" d="M229,26c-0.3,0.4-0.5,0.8-0.9,1.1c-0.9,2.9-3.4,5.6-9,7.4c-2.3,0.8-4.6,1.6-7,1.4
			c3.5,1.5,7.9,0.9,11.4-0.6c0.4-0.2,0.7-0.3,1.1-0.5C227,32.7,228.5,29.3,229,26z"/>
		<path fill="#00AEEF" d="M233.7,8.1c-2-3-4.9-4.6-8.1-5.1c2.2,1.7,4.4,4.3,6.5,7.9c3.6,5.6,6.5,11.6,2.7,18.9
			c-3.9,7.3-11.1,10.8-17.6,10.7c-1.1,0-2.2-0.2-3.3-0.6c-0.6,0-1.1,0-1.7-0.1c-0.8-0.1-1.7-0.2-2.5-0.3c0.3,0.2,0.6,0.4,1,0.6
			c7.3,3.9,13.2,0.9,18.6-2.6C246.5,27.4,238.5,15.3,233.7,8.1z"/>
		<path fill="#00AEEF" d="M203.1,22.4c0-0.1,0-0.3,0-0.4c0-1.7,0.1-3.4,0.4-5.1c0,0.1-0.1,0.1-0.1,0.2
			C202.7,18.8,202.8,20.6,203.1,22.4z"/>
		<path fill="#007281" d="M203.1,22.4c-0.4-1.7-0.4-3.5,0.2-5.3c-0.7,1-1.2,2.1-1.5,3.2c-0.9,4.1,0.3,9.2,4.2,12.8
			C204.1,31,202.9,27.6,203.1,22.4z"/>
		<path fill="#007281" d="M212.3,5.7c-0.5,0.3-1,0.5-1.4,0.8c1.3-0.1,2.7-0.1,4.3-0.1c6.3,0,12.7,0.7,16.6,7.4
			c3.9,6.7,3,14.2-0.4,19.3c-3.2,4.7-10.5,6.9-17.5,6.8c1.1,0.3,2.2,0.5,3.3,0.6c6.5,0.1,13.8-3.4,17.6-10.7
			c3.9-7.3,0.9-13.3-2.7-18.9c-2.1-3.7-4.3-6.2-6.5-7.9C221.2,2.3,216.3,3.6,212.3,5.7z"/>
		<path fill="#00A651" d="M213.8,39.9c-5.2-1.6-10.2-6.5-13.3-12.1c1.3,4.5,4.4,8.8,9.1,11.7c0.8,0.1,1.7,0.3,2.5,0.3
			C212.7,39.9,213.3,39.9,213.8,39.9z"/>
		<path fill="#00904C" d="M223.4,8.2c-1.9-0.9-3.6-1.2-5.3-1c1.1,0.2,2.2,0.4,3.3,0.8C222,8,222.7,8,223.4,8.2z"/>
		<path fill="#00AEEF" d="M203.6,16.5c-0.1,0.2-0.1,0.4-0.2,0.5c0-0.1,0.1-0.1,0.1-0.2C203.5,16.8,203.5,16.7,203.6,16.5z"/>
		<path fill="#00A651" d="M231.3,33.1c3.5-5.1,4.3-12.6,0.4-19.3c-3.9-6.7-10.3-7.4-16.6-7.4c-1.5-0.1-3,0-4.3,0.1
			c-6.1,3.8-11.1,9.9-11.2,15.9c0,1.8,0.3,3.6,0.8,5.4c3.1,5.5,8,10.4,13.3,12.1C220.8,40,228.1,37.8,231.3,33.1z M201.8,20.3
			c0.3-1.1,0.8-2.2,1.5-3.2c0.1-0.2,0.1-0.4,0.2-0.5c0.6-2.9,2-5.6,5.3-7.5c3-1.8,6.2-2.3,9.2-1.9c1.7-0.2,3.5,0.1,5.3,1
			c1.3,0.3,2.6,0.8,4,1.7c5.1,3.4,7.3,9.1,6.8,13.9c-0.4,4.5-4.6,8.7-9.5,11c-1.4,1.3-3.2,2.1-5.4,2.1c-4,0.1-9.8,0.1-13.3-3.8
			C202.1,29.5,200.9,24.4,201.8,20.3z"/>
		<path fill="#00904C" d="M211.6,11.4c-3.2,1.1-6.3,3.1-8.1,5.5c-0.3,1.6-0.4,3.4-0.4,5.1c0,0.1,0,0.3,0,0.4c0.6,2.7,2,5.3,3.1,7.3
			c0.4,0.8,0.9,1.4,1.5,1.9C204.8,26.2,200.6,17.4,211.6,11.4z"/>
		<path fill="#007281" d="M212.2,35.9c-1.8-0.7-3.3-2-4.3-3.9c-0.1-0.1-0.1-0.2-0.2-0.4c-0.6-0.5-1.1-1.2-1.5-1.9
			c-1.1-2-2.6-4.6-3.1-7.3c-0.2,5.2,1,8.6,2.9,10.8c0.1,0.1,0.3,0.3,0.4,0.4C208.4,35.1,210.3,35.8,212.2,35.9z"/>
		<path fill="#00904C" d="M211.6,11.4c0.6-0.3,1.1-0.6,1.8-0.9c2.5-1.3,5.2-2.5,7.9-2.5c-1-0.4-2.1-0.7-3.3-0.8
			c-2.4,0.2-4.7,1.3-6.9,2.5c-4.3,2.1-6.6,4.5-7.6,6.9c0,0.1,0,0.2-0.1,0.4C205.3,14.5,208.4,12.5,211.6,11.4z"/>
		<path fill="#00904C" d="M211.2,9.6c2.2-1.2,4.5-2.3,6.9-2.5c-2.9-0.4-6.1,0.1-9.2,1.9c-3.3,1.9-4.7,4.6-5.3,7.5
			C204.6,14.1,206.9,11.7,211.2,9.6z"/>
		<path fill="#00904C" d="M219.3,37c2.2,0,4-0.8,5.4-2.1c-0.4,0.2-0.7,0.3-1.1,0.5c-3.5,1.5-7.9,2-11.4,0.6
			c-1.9-0.1-3.9-0.8-5.8-2.4c-0.1-0.1-0.3-0.2-0.4-0.4C209.5,37.1,215.3,37,219.3,37z"/>
	</g>
	<g>
		<path fill="#221F1F" d="M243.8,9.2h7.1c7.9,0,14.9,2.7,14.9,12.9c0,10.2-7,12.9-14.9,12.9h-7.1V9.2z M249,30.9h2.9
			c4.3,0,8.5-3.2,8.5-8.8c0-5.6-4.2-8.8-8.5-8.8H249V30.9z"/>
		<path fill="#221F1F" d="M269.7,9.2H285v4.1h-10.1v6.4h9.2v4.1h-9.2v7.2H285V35h-15.3V9.2z"/>
	</g>
</g>
</svg>
