<svg class="Svg Svg--call" viewBox="0 0 150 150">
  <path d="M13.0580357,50.2232143 C13.0580357,63.1697078 18.6383378,72.7678265 29.7991072,79.0178572 L29.4642857,79.0178572 L28.7946428,78.6830357 L28.125,78.3482143 L27.1205357,78.3482143 C21.316935,77.9017843 16.294665,75.5022535 12.0535715,71.1495535 C7.81247785,66.7968535 5.13393428,61.4955665 4.01785715,55.2455357 C1.33927285,55.2455357 0,53.4598393 0,49.8883928 C0,46.7633765 1.22766643,44.97768 3.68303572,44.53125 C4.79911285,37.3883572 7.92408215,31.4174357 13.0580357,26.6183035 C18.1919893,21.8191715 24.1071085,19.4196428 30.8035715,19.4196428 L33.4821428,19.4196428 C27.4553272,21.8750122 22.5446615,25.9486328 18.75,31.640625 C14.9553385,37.3326172 13.0580357,43.5267515 13.0580357,50.2232143 L13.0580357,50.2232143 L13.0580357,50.2232143 Z M144.977678,19.7544643 C148.32591,28.2366493 150,38.0579807 150,49.21875 C150,60.6027365 148.32591,70.4240657 144.977678,78.6830357 L143.973215,81.6964285 C141.964275,86.1607372 139.285732,89.9553407 135.9375,93.0803572 C131.696407,97.3214507 127.901803,99.5535707 124.553572,99.7767857 L123.549107,99.7767857 C121.316953,99.7767857 118.86162,99.2187557 116.183035,98.1026785 L112.834821,96.4285715 C108.593728,94.6428493 102.343791,92.63394 94.0848215,90.4017857 C85.8258515,88.1696315 79.2410957,86.941965 74.3303572,86.71875 C72.0982028,91.1830585 70.75893,94.5312385 70.3125,96.7633928 C68.9732078,102.790209 68.191965,109.598177 67.96875,117.1875 C67.745535,125.00004 68.0803522,134.151733 68.9732143,144.642857 C68.9732143,144.866072 69.0290165,145.256693 69.140625,145.814732 C69.2522335,146.37277 69.3080357,146.763392 69.3080357,146.986607 C69.3080357,148.995547 68.3035822,150 66.2946428,150 L40.5133928,150 C38.5044535,150 37.5,149.330363 37.5,147.991072 L37.5,145.647322 C37.723215,141.183013 38.1138365,136.49556 38.671875,131.584822 C39.2299135,126.674083 39.89955,122.321447 40.6808035,118.526785 C41.4620572,114.732124 42.2433,111.272338 43.0245535,108.147321 C43.8058072,105.022305 44.5312457,102.455368 45.2008928,100.446429 L46.2053572,97.0982143 C46.2053572,96.8749993 46.5401743,95.5915285 47.2098215,93.2477678 C47.8794685,90.9040072 48.3258922,88.8392935 48.5491072,87.0535715 C48.7723222,85.9374943 48.1026857,84.9888428 46.5401785,84.2075893 C44.9776715,83.4263357 42.9687622,82.5892907 40.5133928,81.6964285 C38.0580235,80.8035665 36.2723272,79.9107193 35.15625,79.0178572 C24.6651257,72.7678265 19.4196428,63.1697078 19.4196428,50.2232143 C19.4196428,43.5267515 21.2611415,37.3326172 24.9441965,31.640625 C28.6272515,25.9486328 33.3705065,21.8750122 39.1741072,19.4196428 L53.2366072,19.4196428 L59.5982143,19.4196428 C78.7947385,18.5267807 96.9865222,12.9464807 114.174107,2.67857143 C114.397322,2.67857143 114.620535,2.566965 114.84375,2.34375 C115.066965,2.120535 115.290178,2.00892857 115.513393,2.00892857 C118.191977,0.669636428 120.870523,0 123.549107,0 C127.7902,0 131.919623,1.78569643 135.9375,5.35714285 C139.508947,8.92858928 142.187492,12.8347993 143.973215,17.0758928 C143.973215,17.2991078 144.08482,17.7455315 144.308035,18.4151785 C144.53125,19.0848257 144.754463,19.5312493 144.977678,19.7544643 L144.977678,19.7544643 L144.977678,19.7544643 Z M137.276785,79.0178572 C140.625017,70.7588872 142.299107,60.8259515 142.299107,49.21875 C142.299107,37.8347635 140.625017,28.0134343 137.276785,19.7544643 C134.374987,13.2812185 131.026805,10.0446429 127.232143,10.0446429 C123.660697,10.0446429 120.42412,13.2812185 117.522322,19.7544643 C114.17409,28.0134343 112.5,37.8347635 112.5,49.21875 C112.5,60.8259515 114.17409,70.7588872 117.522322,79.0178572 C120.647338,86.383965 123.883912,90.0669643 127.232143,90.0669643 C130.580375,90.0669643 133.928555,86.383965 137.276785,79.0178572 L137.276785,79.0178572 L137.276785,79.0178572 Z"></path>
</svg>
