<svg class="Svg Svg--logo" viewBox="0 0 150 150">
  <path d="M130.4886,48.9958386 C130.491356,48.8586112 130.573046,48.6472459 130.759816,48.3409834 C131.583133,46.9909663 130.00239,46.925115 131.023261,45.805587 C132.044163,44.6860615 133.163843,43.401903 132.933343,42.0518857 C132.702811,40.701871 131.813633,38.1006234 131.155015,38.4957482 C130.496368,38.8908729 130.167029,40.1421083 129.113212,39.6811274 C128.059395,39.2201464 128.355789,39.4177076 127.598363,39.3847819 C126.840909,39.3518564 126.775045,39.1872208 126.74213,38.4957482 C126.709185,37.8042755 127.005578,37.7054962 126.281068,37.6067144 C125.556559,37.5079326 124.041712,37.5079326 126.182262,36.1579153 C128.322841,34.8079006 128.224065,34.0505767 128.224065,33.7542289 C128.224065,33.4578859 126.775045,32.206653 127.631278,31.4493266 C128.48751,30.6919978 129.014436,30.7907821 130.134113,30.0005301 C131.253794,29.2102781 133.295598,28.2224575 132.439365,28.1895319 C131.583133,28.1566063 130.298784,28.4858749 129.738944,28.2883138 C129.179073,28.0907501 128.882712,27.8273328 127.532472,28.9139302 C126.182262,30.0005301 127.367833,30.3627292 125.918813,31.4163985 C124.469827,32.4700703 122.625608,32.4371422 122.625608,32.4371422 C122.625608,32.4371422 123.251341,35.8615725 122.428024,35.5981526 C121.604737,35.3347353 120.419166,33.8859413 119.595879,33.8859413 C118.772594,33.8859413 118.048084,33.8859413 118.015139,33.5237421 C117.982223,33.161538 118.212723,32.7664133 117.883414,32.7005596 C117.554106,32.6347059 116.829597,33.0298331 117.587021,31.1859093 C118.344477,29.341983 118.245669,29.0785657 117.554106,28.35417 C116.862512,27.6297717 114.787824,27.4980593 114.787824,27.4980593 C114.787824,27.4980593 114.985409,24.7321761 113.766922,24.4358332 C112.548436,24.1394853 112.51549,23.5467944 111.000641,24.6004662 C109.485731,25.6541355 110.177324,25.5882843 109.222283,25.3907182 C108.267242,25.1931571 108.234327,24.6333943 107.312234,24.9955935 C106.390141,25.3577926 106.554778,25.3577926 106.554778,25.7529173 C106.554778,26.1480471 107.246341,27.3334238 107.246341,28.0578245 C107.246341,28.7822228 107.312234,29.5724748 107.641542,30.6261466 C107.970852,31.6798183 109.024699,33.4908115 107.773267,34.9066825 C106.521862,36.3225509 103.821444,37.63964 102.866403,37.6067144 C101.911363,37.5737888 101.713778,35.1700997 100.16597,35.4005915 C98.6181751,35.6310832 98.2559204,34.7091188 97.4984649,37.3762227 C96.741041,40.043329 97.0374342,38.3311126 96.9386256,38.923801 C96.8398496,39.5164919 96.4117326,42.3811593 94.3370139,42.3153031 C92.2622953,42.2494519 92.328156,41.5250511 91.8012321,40.2408901 C91.2743391,38.9567291 89.627735,37.6067144 88.2116642,37.310369 C86.7955925,37.0140235 84.4574262,36.1908435 84.0951723,36.9152418 C83.7329177,37.63964 83.9634477,40.5372355 84.2598416,41.4591974 C84.5562023,42.3811593 85.4124347,43.0067758 85.4124347,44.3238624 C85.4124347,45.6409515 86.0710816,45.4433904 85.9723056,45.1470425 C85.873497,44.8506995 86.2028063,44.6860615 86.3674756,45.2128986 C86.5321448,45.7397333 87.2566233,46.7934026 87.2895711,49.1312379 C87.3224864,51.4690657 87.5530164,52.7532293 87.3554318,52.852011 C87.1578472,52.9507929 85.9723056,49.9873411 85.7417756,48.7031826 C85.5112432,47.4190191 85.4783278,46.8263307 84.7538193,46.3653498 C84.0293116,45.9043688 84.5562023,44.5872797 83.2389399,43.9945914 C81.9216444,43.401903 81.131306,43.2043369 81.131306,43.2043369 C81.131306,43.2043369 81.3288906,39.0225828 80.0445412,38.3640408 C78.7601937,37.7054962 80.1762651,38.1006234 79.2870873,37.343297 C78.3979395,36.5859682 77.9368918,37.5737888 77.9368918,37.5737888 C77.9368918,37.5737888 78.3320763,36.5859682 77.7722299,36.2566997 C77.2123886,35.9274262 77.1465228,35.565227 76.5208156,36.6518244 C75.8951085,37.7384218 75.7963124,37.7384218 75.7963124,37.7384218 C75.7963124,37.7384218 76.0268351,36.0920616 75.499924,36.1908435 C74.973013,36.2896253 73.9191885,37.2774409 73.7215963,37.7054962 C73.5240066,38.1335491 73.655733,39.6481993 72.2396569,39.6811274 C70.8235833,39.7140555 69.1769845,39.6152736 69.1111213,41.2287057 C69.0605163,42.4683135 69.379263,42.4251023 69.1562972,42.6073331 L78.4321224,42.6073331 L78.4321224,93.2348888 C78.4321224,108.593156 69.4283109,115.583835 56.2919207,115.583835 C53.5774513,115.583835 51.1235484,115.262222 48.911208,114.677365 C49.9070708,115.451615 50.7021467,116.088692 50.7021467,116.088692 L57.1999884,122.516945 C57.1999884,122.516945 62.9750227,121.771889 67.8186004,124.007061 C72.6621782,126.242239 73.4073399,126.614765 73.4073399,126.614765 C73.4073399,126.614765 76.946879,127.732354 82.5356187,125.497176 C88.1243654,123.262004 88.4969503,124.193325 91.4775994,119.722981 C94.4582517,115.252638 96.1348854,114.135051 101.351057,113.948788 C101.707674,113.936054 102.040781,113.925061 102.3524,113.915332 C94.7716547,111.437335 89.5192932,106.428718 86.4874888,100.438773 L98.5630227,93.4480936 C101.741833,98.6385843 105.873159,102.45154 113.182357,102.45154 C115.326889,102.45154 117.200238,102.077413 118.730495,101.410205 C119.534262,100.755575 120.294954,100.264481 120.973752,100.021021 C122.435393,98.7554504 123.245772,97.0695901 123.245772,95.1427753 C123.245772,90.0587305 119.220594,88.2579161 112.440572,85.2930842 L108.733839,83.7032832 C98.0338475,79.1495896 90.9360072,73.4300001 90.9360072,61.3552764 C90.9360072,50.2338698 99.410643,41.7598358 112.652869,41.7598358 C120.147573,41.7598358 125.968714,43.8349672 130.4886,48.9958386 L130.4886,48.9958386 Z M130.668377,49.2035412 C130.970815,49.2434813 131.604323,48.9507252 132.175887,48.6373264 C133.196788,48.0775661 133.690767,47.9458562 134.448191,47.8470744 C135.205646,47.7482926 136.489994,46.8263307 136.85225,46.8592589 C137.214472,46.8921844 137.08275,47.1556017 136.951026,47.9787843 C136.819303,48.8019644 136.358273,49.2300172 138.334182,50.7775955 C140.310094,52.3251739 141.330996,52.3251739 142.911707,52.1605384 C144.492447,51.9959028 143.702078,52.358102 144.196054,53.3459176 C144.690032,54.3337357 145.315764,54.5312943 145.941466,54.2020258 C146.567166,53.8727523 146.665975,54.7288604 147.159953,55.1239851 C147.653931,55.5191124 147.719792,55.6178942 147.489261,56.0459495 C147.258729,56.4739998 147.357537,56.4410743 147.225813,57.9227989 C147.094092,59.4045235 146.830614,59.8655044 145.941466,60.2277036 C145.052286,60.5899002 146.468359,60.9520994 146.369581,61.2813729 C146.270775,61.6106464 144.426586,62.2033348 144.426586,62.2033348 C144.426586,62.2033348 146.007327,62.1374811 147.061144,62.1704067 C148.114961,62.2033348 148.114961,62.4996802 148.444302,63.0265149 C148.773609,63.553352 147.950324,64.4094602 147.686846,64.8375105 C147.423398,65.2655659 142.055474,66.0228922 143.702078,65.7265443 C145.348679,65.4302013 148.312578,65.6277625 148.312578,65.6277625 C148.312578,65.6277625 148.180824,67.9985234 148.608939,68.2290151 C149.037057,68.4595018 149.662789,66.911926 149.662789,66.911926 C149.662789,66.911926 150.189682,69.3814662 149.926234,69.5790298 C149.662789,69.7765909 149.827426,69.6778092 149.761565,69.8095215 C149.695704,69.941229 149.267587,71.9827138 147.555122,72.1473493 C145.842658,72.3119873 145.941466,69.4473224 143.306906,70.5339173 C140.672349,71.6205147 143.702078,71.7522247 144.591256,72.0814982 C145.480403,72.4107692 146.468359,73.2998029 147.028229,73.6949302 C147.58807,74.090055 148.147909,73.2998029 148.147909,74.3205467 C148.147909,75.3412928 143.965554,74.6498202 143.965554,74.6498202 C143.965554,74.6498202 147.365077,75.7645844 147.365077,76.695906 C147.365077,77.6272276 144.384395,77.2546995 144.384395,77.2546995 L145.315857,77.6272276 C145.315857,77.6272276 146.806198,77.4409623 145.502149,78.1860212 C144.198103,78.9310774 144.198103,79.4898709 144.384395,80.6074578 C144.570688,81.7250423 142.707792,81.9113076 141.403746,82.0975754 C140.099697,82.2838357 140.844866,82.2838357 139.54082,80.979986 C138.236771,79.6761362 137.119047,79.3036055 137.119047,79.3036055 C137.119047,79.3036055 138.236771,81.1662513 138.981941,81.9113076 C139.727112,82.6563688 141.403746,83.7739508 141.403746,83.7739508 C141.403746,83.7739508 138.795648,85.6365965 138.423064,89.3618855 C138.272178,90.87063 138.151845,91.5850183 137.925935,91.9381283 C136.83995,81.6106767 129.915353,76.5759893 118.372347,71.6294988 L114.664988,70.04095 C108.309558,67.2868185 105.555028,65.486004 105.555028,61.0371909 C105.555028,57.4365014 108.309558,54.6826829 112.652869,54.6826829 C116.89003,54.6826829 119.643621,56.4831843 122.186168,61.0371909 L133.733153,53.623233 C132.78552,51.9546259 131.765745,50.4863287 130.668377,49.2035412 L130.668377,49.2035412 Z M63.6017444,45.7977922 C63.4278551,45.7282538 63.2819352,45.6185216 63.1833663,45.4104598 C62.8869754,44.7848433 61.9648825,42.7433559 61.4709018,41.4591974 C60.9769237,40.1750364 60.4500102,37.8701317 59.0668669,38.1335491 C57.6837237,38.3969663 55.8395327,38.6274556 55.6748733,40.6689455 C55.5102139,42.7104304 57.3873378,46.2994985 57.3544049,49.3617247 C57.321472,52.4239557 57.7495894,54.3995869 54.7527778,54.8934959 C51.7559687,55.3874025 52.9415172,54.3337357 52.6780616,53.3459176 C52.4146112,52.358102 52.4475415,51.3373583 50.1093699,53.9386084 C47.7712008,56.5398561 47.705335,58.1862162 47.8699969,59.4045235 C48.0346563,60.6228309 48.5945001,62.8618793 48.2981118,62.8948049 C48.0017234,62.9277355 46.8491028,59.5033053 46.651513,59.6020872 C46.4539208,59.7008664 46.2892614,59.2398881 46.2892614,60.2277036 C46.2892614,61.2155192 46.2892614,66.5826525 45.9928756,66.6155831 C45.6964846,66.6485087 45.3013027,66.4180169 44.840255,63.7509131 C44.3792047,61.0838118 44.2145453,59.5033053 43.7534975,59.2069574 C43.2924523,58.9106145 43.3583155,58.7130508 42.6008794,59.1081756 C41.8434458,59.5033053 41.7446472,59.3386673 42.6667427,58.1532906 C43.5888382,56.9679089 44.016953,54.8934959 43.2924523,54.6300786 C42.567949,54.3666613 41.6787839,55.3874025 41.6787839,55.3874025 C41.6787839,55.3874025 43.2430542,53.8398266 41.9093065,53.5105531 C40.5755638,53.1812821 38.8960322,53.3623804 38.5831786,51.4196773 C38.2703251,49.4769718 39.307682,50.9586964 40.1145161,51.3044302 C40.9213478,51.6501691 41.9422419,51.6995574 42.4197548,50.9093055 C42.8972678,50.1190535 43.3253827,49.7239238 42.2056975,49.1806264 C41.0860097,48.6373264 42.0410355,49.0159908 42.567949,48.6208636 C43.0948601,48.2257388 43.8852265,47.46841 44.0663511,46.217177 C44.2474782,44.9659442 44.6426601,44.192155 43.6217711,43.6817832 C42.6008794,43.1714113 42.8643349,43.6159295 42.2056975,43.2208022 C41.5470549,42.8256774 42.0245704,42.7268931 41.1683381,42.8092122 C40.3121084,42.8915287 41.2506691,42.4964039 42.3703568,42.2494519 C43.4900421,42.0024949 43.9510923,42.0024949 43.2265865,41.0476049 C42.5020833,40.0927199 42.3703568,41.162852 41.8269781,40.998214 C41.2835994,40.833581 40.4273696,40.4219884 40.9872136,40.0927199 C41.5470549,39.7634464 41.4647265,39.3024654 40.9213478,38.9731919 C40.3779691,38.6439209 39.9333891,38.841482 39.8675258,39.5494199 C39.8016601,40.2573529 39.6864012,40.6360149 39.5217393,40.5701636 C39.35708,40.5043075 39.9333891,39.5329547 39.2582839,39.5823456 C38.5831786,39.6317365 38.4514496,39.3683167 38.5337806,39.0225828 C38.616109,38.676849 38.5996438,37.7713499 38.4185193,37.6725681 C38.2373923,37.5737888 38.4185193,37.392688 38.5337806,37.1457335 C38.6490419,36.8987764 38.616109,36.0426733 37.8916083,35.5981526 C37.167105,35.1536369 36.9365799,35.3182725 36.3438032,34.6597279 C35.751029,34.0011834 35.2899787,34.5774114 35.2899787,34.5774114 C35.2899787,34.5774114 36.1132805,33.7871595 35.8662902,33.3920297 C35.6192999,32.996905 35.273516,32.7828785 34.7795354,32.7334876 C34.2855547,32.6840968 34.1538282,32.0255522 33.9891663,32.4206794 C33.824507,32.8158042 33.1164715,33.3591041 33.1494018,32.8322694 C33.1823322,32.3054348 33.346994,32.124334 32.7542198,32.3548257 C32.161443,32.5853124 32.4578289,31.7456696 32.5566251,30.9883457 C32.6554212,30.2310193 32.902414,30.1487028 32.3755005,30.049921 C31.8485895,29.9511392 32.0955773,29.8523549 32.112045,29.6218657 C32.1285277,29.391374 31.634532,29.0785657 31.5686663,28.8151484 C31.502803,28.5517311 31.4040069,28.6505129 31.0911534,28.4200237 C30.7782998,28.1895319 30.9594269,27.6791626 30.6136379,27.4980593 C30.267854,27.3169635 29.740943,26.526709 29.5598159,27.1852511 C29.3786888,27.8437981 28.8023798,26.5925627 28.4401281,26.3620735 C28.0778766,26.1315818 27.5180326,25.3907182 27.3533733,26.2139008 C27.1887139,27.0370808 26.9911217,26.7901263 26.7605965,27.1029345 C26.5300739,27.4157428 26.1513571,27.2511073 25.5091823,26.5760999 C24.8670075,25.9010925 23.7637874,24.9462026 23.4674015,25.571819 C23.1710131,26.1974355 23.1710131,26.3126826 22.1501215,26.4114644 C21.1292299,26.5102437 20.519988,26.3620735 21.0304338,27.2675726 C21.5408821,28.1730666 21.8866661,28.7657575 21.4585487,28.9797864 C21.0304338,29.1938128 20.519988,28.9797864 20.1742041,28.8974699 C19.8284176,28.8151484 19.2356409,29.012712 20.1577213,29.7206475 C21.0798143,30.4285804 21.6890562,30.7743193 22.3970944,30.6755375 C23.1051324,30.5767557 24.6858654,29.0456401 24.7681963,29.2102781 C24.8505248,29.3749137 23.9448994,30.1816284 24.4718105,30.3297986 C24.9987215,30.4779739 25.179846,30.4285804 25.4433015,30.2310193 C25.706757,30.0334557 26.3983299,29.6218657 26.2830661,30.3791895 C26.1678047,31.1365184 26.1348719,31.2682258 27.024037,31.3340795 C27.9131996,31.3999357 28.5883049,30.8730986 28.5883049,31.1529812 C28.5883049,31.4328613 27.6662094,32.1078712 27.8967319,32.1901877 C28.1272571,32.2725042 29.7409229,32.0255522 29.4445371,32.2560439 C29.1481512,32.4865331 28.3907126,32.7170224 28.2589836,32.8816604 C28.1272571,33.0462959 27.8473339,33.5895933 27.7650055,33.326176 C27.6826745,33.0627587 25.3280402,32.0749431 24.5212085,32.1572621 C23.7143743,32.2395786 23.286257,32.6676339 22.8910749,32.7170224 C22.4958905,32.7664133 21.8207852,33.3097132 22.3970944,34.0505767 C22.9734034,34.7914354 24.208355,35.894498 25.4433015,36.4048724 C26.6782506,36.9152418 25.6408938,37.2939061 26.2995337,37.1621963 C26.9581712,37.0304889 26.7441139,37.4420764 27.1392983,37.6725681 C27.5344803,37.9030573 28.0613938,38.3475754 28.5389068,38.3311126 C29.0164197,38.3146323 29.5927313,38.1664746 28.9999545,38.6109928 C28.4071803,39.0555084 28.3907126,40.0103984 28.736499,40.1091802 C29.0822854,40.207962 30.0043785,42.9738476 29.7244603,43.862884 C29.4445371,44.7519177 28.3248493,47.089748 28.6377029,45.7726614 C28.9505564,44.4555748 29.1316835,42.5293295 28.3413145,42.6281113 C27.550948,42.7268931 26.9911067,43.813493 27.0734351,43.105555 C27.1557635,42.3976221 26.0854764,39.00612 25.1139802,39.3683167 C24.1424892,39.7305158 24.1424892,42.7598213 24.0436931,41.9366437 C23.9448994,41.1134611 23.9448994,40.1750364 23.1380628,41.1957801 C22.3312285,42.2165213 23.5497124,40.3396719 23.1051324,39.9116166 C22.6605498,39.4835638 22.1007084,39.7305158 21.7878549,39.9939356 C21.4749989,40.2573529 22.0513104,39.3847819 21.9525118,38.8085564 C21.8537156,38.2323308 21.936029,37.0469516 20.9810182,37.5408581 C20.0259923,38.0347672 20.6352343,37.1457335 19.8942659,36.1579153 C19.1532949,35.1700997 17.7042859,33.6389842 16.419941,33.8530106 C15.1355914,34.0670371 13.9006449,34.3798453 14.2958268,35.2030279 C14.6910114,36.0262079 16.8315907,36.0262079 14.7239417,35.7957162 C12.6162952,35.565227 12.9950146,36.4871889 13.6371893,37.2774409 C14.2793592,38.0676928 16.8645211,39.9280819 15.3331837,39.3189282 C13.8018487,38.7097746 11.5460055,37.0140235 11.1508236,38.0676928 C10.7556365,39.1213646 11.0026294,40.6030892 13.8512468,43.1714113 C16.6998592,45.7397333 14.4604862,44.0604451 13.4889927,44.0933706 C12.5174991,44.1263013 11.8753268,42.4964039 10.9696965,42.5622602 C10.0640687,42.6281113 9.42189384,42.5128693 10.1628648,44.5378913 C10.9038332,46.5629109 11.5624732,47.1885324 13.3901965,47.6001224 C15.2179223,48.0117099 17.85248,47.5342662 17.9183433,47.9787843 C17.9842091,48.4232999 17.9183433,48.6044008 16.0906198,48.83489 C14.2628964,49.0653817 14.0653017,48.7361082 14.1476326,49.3946553 C14.2299611,50.0531973 15.5637088,50.6129575 15.4978431,50.9586964 C15.4319798,51.3044302 15.5143257,52.1440731 14.9873997,52.1276128 C14.4604862,52.1111325 14.1476326,51.5513872 13.9335752,51.8806557 C13.7195178,52.2099293 13.5877913,52.2593202 13.2255371,51.1727228 C12.863288,50.0861229 12.4022378,49.5263627 11.4307467,49.0324561 C10.4592506,48.5385471 7.24838407,45.6409515 6.72147308,45.9208341 C6.19456208,46.2007142 5.96403695,46.7440142 6.35921895,47.962319 C6.75440595,49.1806264 7.2154512,50.036732 8.1210815,50.6294229 C9.02671182,51.2221137 9.55362284,51.7324856 9.22430409,51.7983393 C8.89498281,51.8641954 6.58974408,50.5471063 6.4250847,50.9422311 C6.26042533,51.3373583 8.45040278,53.7739704 8.18694731,53.9715366 C7.92349176,54.1690977 7.33071502,54.2020258 5.74997951,52.8684739 C4.16924401,51.5349219 4.13631364,50.9751617 3.11542202,51.2879699 C2.09453039,51.6007782 2.62144389,53.2142102 2.01219945,53.5764093 C1.40296002,53.9386084 1.1559672,53.7575101 0.826650959,54.2514167 C0.497329704,54.7453207 -0.161312802,55.3215488 0.0362819535,55.4367934 C0.233874205,55.5520405 3.18128527,55.3544768 4.03751752,55.634357 C4.89374727,55.9142372 7.13312277,56.5727842 7.29778465,56.918518 C7.46244151,57.2642518 7.19898602,58.3014608 7.66003627,58.5319501 C8.1210815,58.7624418 10.047601,58.9435401 10.442788,58.6471971 C10.83797,58.3508517 11.2002216,57.5112089 12.3363771,57.330108 C13.4725275,57.1490097 14.4110882,56.8855924 14.658081,56.6551007 C14.9050688,56.424609 14.8721359,56.2435107 16.0247591,56.6386204 C17.1773771,57.0337476 17.6878232,56.9349658 17.8030845,56.6715485 C17.9183433,56.4081311 17.7536865,53.5105381 18.3958588,54.1690827 C19.0380336,54.8276247 20.0424575,55.5190974 20.3882464,55.3544618 C20.7340304,55.1898238 21.0798143,53.5434662 21.4585337,53.7739554 C21.8372504,54.0044471 21.7055214,54.6629892 21.968977,54.5312792 C22.232435,54.3995718 22.9240053,53.6751736 23.1216001,54.0867636 C23.3191923,54.4983537 23.0886672,55.7989775 23.6814414,55.4532411 C24.2742182,55.1075048 24.9328557,55.3544618 25.3280427,55.7989775 C25.7232247,56.2434956 27.2380944,54.3995718 27.3368906,55.0745792 C27.4356842,55.7495866 27.3204079,56.9514286 27.8308712,56.7703302 C28.3413145,56.5892295 29.7738584,55.9471502 29.526868,56.5233782 C29.2798777,57.0996038 28.6871035,57.0831385 28.9834893,57.6593641 C29.2798777,58.2355896 30.663021,59.4538969 30.9923422,59.404506 C31.321661,59.3551176 31.3381262,59.322187 31.3381262,59.322187 C31.3381262,59.322187 32.3754855,56.7044741 33.1987824,57.0831385 C34.0220817,57.4618029 34.6642565,57.4947286 34.7959855,58.4660814 C34.927712,59.4374341 34.1044127,58.8776714 35.0923714,59.1740168 C36.0803301,59.4703597 37.5128739,59.0916977 37.3646797,59.6349952 C37.2164856,60.1782952 36.903632,59.9313431 35.7180785,60.4252497 C34.53253,60.9191587 34.2196765,60.8039116 33.9068229,61.2484323 C33.5939694,61.6929454 32.3919481,62.1210008 31.7991764,62.5655189 C31.2063996,63.0100345 30.498359,63.5697973 29.6421268,63.6850419 C28.7858996,63.800289 28.4401107,65.0515219 27.8638015,65.3972582 C27.2874925,65.7429921 26.628855,66.6320284 26.5300589,66.9448366 C26.4312627,67.2576448 25.9866802,67.9655803 26.5465416,68.1960695 C27.106383,68.4265612 27.4851023,67.9655803 28.3577972,68.4924149 C29.2304972,69.019252 31.3381412,70.0893841 32.8859463,69.9412115 C34.4337489,69.7930387 35.7839593,68.2454629 35.8168921,67.9985059 C35.8498251,67.7515538 36.4755322,66.6155656 37.0847716,67.3728894 C37.6940161,68.1302158 37.1506374,68.8052231 37.0024432,69.4308396 C36.8542515,70.0564585 36.2285394,71.3406195 36.327338,72.2461162 C36.4261341,73.1516152 36.327338,72.921126 36.1297457,72.9046607 C35.9321535,72.8881803 32.0791121,73.0363681 30.9758895,72.5753872 C29.8726695,72.1144088 29.3622236,71.6369625 28.5224591,71.7028187 C27.6826946,71.7686699 25.3445254,72.0156269 25.2127964,72.4601425 C25.08107,72.9046607 24.949341,73.4973516 24.5212236,73.2997855 C24.0931086,73.1022244 23.813188,72.0979434 22.7922964,72.4107516 C21.7714072,72.7235599 21.046899,73.2997855 20.5529234,73.1516152 C20.0589403,73.0034425 20.1083383,72.6577087 19.5320292,72.9375863 C18.9557202,73.2174689 19.0051182,73.1022244 18.9392525,73.5138144 C18.8733917,73.9254019 19.5649596,74.8638316 19.1862453,74.6168746 C18.807526,74.3699226 18.7745956,73.9583325 18.4452744,74.0735771 C18.1159556,74.1888217 18.0830227,74.4522391 17.9677614,74.7650473 C17.8524976,75.077858 17.8524976,74.7321217 17.9018957,74.2052845 C17.9512937,73.6784499 18.148886,72.4766079 17.6384401,72.7729508 C17.1279966,73.0692987 16.5681502,72.4436823 16.2223663,73.7607689 C15.8765799,75.077858 16.3376277,75.3412753 16.0577045,75.2754216 C15.7777863,75.2095654 15.4813953,74.6333398 15.0038824,74.3369944 C14.526367,74.040649 12.8962359,73.9254019 12.5669172,74.2711407 C12.2375959,74.6168746 11.233172,75.5882299 10.3275417,75.538839 C9.4219114,75.489448 8.8291371,75.4400571 8.20342998,74.6991936 C7.57772287,73.9583325 6.16164423,75.1272489 6.02991774,75.3083472 C5.89818873,75.489448 6.04640046,75.7034745 5.60180286,75.7693256 C5.1572228,75.8351819 4.53151318,75.5717645 5.07488936,77.0534892 C5.61826805,78.5352139 6.02991774,80.4120632 7.74237977,80.7742623 C9.45484422,81.1364614 9.7841655,80.3791376 10.4757334,79.6382765 C11.1673062,78.897413 11.4636971,78.6833865 12.3693225,79.0126576 C13.2749528,79.3419286 13.554876,79.1279022 13.9335953,78.7492402 C14.3123096,78.3705783 14.7568921,78.3870411 17.6055098,78.9961948 C20.4541273,79.6053459 22.3477163,79.6218112 22.8252268,79.9510847 C23.3027397,80.2803558 24.3236338,80.7084086 24.7188158,80.4614541 C25.1140003,80.2145021 26.101959,79.720593 26.6124023,79.9181541 C27.1228507,80.1157203 27.0734526,80.6096268 26.9581913,80.8895094 C26.8429275,81.169392 27.0569849,82.0913514 27.4851023,82.3053779 C27.9132197,82.5194042 27.5674307,83.1450207 27.3369081,83.490757 C27.106383,83.8364934 25.9537648,83.8529587 27.2051791,85.1371172 C28.4565933,86.4212807 27.6991597,87.3267748 27.7156249,87.5901946 C27.7321077,87.853612 27.4851023,88.7426482 28.1108094,87.9523963 C28.7365165,87.1621418 29.2963604,88.9566721 29.4939526,89.7304638 C29.6915449,90.5042505 30.0208662,91.1298669 30.8112327,90.6359604 C31.6015967,90.1420514 31.4040069,89.2694829 32.2108411,88.9566721 C33.0176753,88.6438639 33.4457877,88.6603293 34.2032263,88.0511756 C34.9606625,87.4420219 36.1462109,86.9316501 35.668698,88.0841037 C35.191185,89.2365548 34.0385644,89.0719193 33.6433824,89.6810729 C33.2481979,90.2902215 32.2437715,91.3274281 32.0791121,92.2823181 C31.9144502,93.237208 31.7991914,93.3195245 32.0791121,93.648798 C32.3590353,93.9780691 33.2481979,93.3195245 32.5566251,94.0603856 C31.8650521,94.8012491 30.9429592,95.5091846 31.3710766,95.8713838 C31.7991914,96.2335829 32.3425676,96.5463911 33.2646631,96.3158994 C34.1867586,96.0854127 35.2570483,94.8506401 35.7674941,94.5707599 C36.2779374,94.2908773 36.5413929,93.1878171 38.7972361,93.61587 C41.0530768,94.0439253 40.723758,93.9122154 40.0651155,94.2250236 C39.406478,94.5378319 39.5876051,94.5872227 38.5996438,94.521369 C37.6116851,94.4555153 37.463491,94.8341773 37.2494335,95.0317408 C37.035376,95.229302 36.9530451,95.4927218 36.1462109,95.7067482 C35.3393768,95.9207747 33.873905,98.0775091 33.873905,98.2421471 C33.873905,98.4067827 33.6433824,98.6043463 34.6148735,99.0982529 C35.5863696,99.5921619 36.0803477,100.711687 35.4217077,100.991565 C34.7630676,101.271448 32.9188766,101.386695 32.9188766,101.666577 C32.9188766,101.946455 33.2317302,102.835491 32.8200805,102.851954 C32.4084309,102.868434 32.062647,102.654393 31.8979876,103.395254 C31.7333257,104.136118 32.2602391,104.333679 31.2558127,104.547707 C30.2513863,104.761734 29.3622236,105.519058 28.8517803,105.436741 C28.3413346,105.35442 27.5509681,104.942832 26.579472,105.914185 C25.6079809,106.885535 25.0975326,106.7209 24.9328732,106.638583 C24.7682139,106.556267 24.3236338,106.836147 23.7967203,105.33796 C23.2698093,103.83977 22.3312486,102.91781 21.9525293,103.362326 C21.5738125,103.806844 21.5079492,104.399535 21.4256183,105.436741 C21.3432899,106.473948 20.6681822,106.786756 21.2774241,107.083102 C21.8866661,107.379447 21.968997,107.609939 21.5902777,108.284943 C21.2115609,108.959951 20.8822396,109.157515 20.9975034,109.602033 C21.1127648,110.046549 21.2280286,110.27704 21.0633667,110.853266 C20.8987073,111.429494 20.3553286,111.874009 21.4256183,112.038645 C22.495908,112.20328 24.2907009,111.79169 24.7682139,111.65998 C25.2457268,111.528273 26.2172204,110.622774 27.8308862,111.133148 C29.4445546,111.64352 30.0373289,111.429494 30.4983766,111.445956 C30.9594269,111.462437 33.0670734,111.445956 33.4128573,111.248391 C33.7586412,111.050829 34.5325451,110.326431 34.9935928,110.935582 C35.4546406,111.544739 35.7674941,112.318528 37.167105,112.137427 C38.5667135,111.956328 38.3526535,111.808156 39.406478,111.709374 C40.4603,111.610589 40.279173,111.330712 40.6249619,111.034364 C40.7204802,110.952503 40.8185117,110.868129 40.9443933,110.799983 C37.8663754,108.424955 35.6146734,105.353606 34.045884,102.026382 L34.045884,102.027634 L46.1229839,94.7198092 C48.4529216,98.8502239 50.5724417,102.344781 55.6562839,102.344781 C60.5293953,102.344781 63.6017444,100.438835 63.6017444,93.0251277 L63.6017444,45.7977922 L63.6017444,45.7977922 Z"></path>
</svg>
