<svg class="Svg Svg--ticket" viewBox="0 0 150 79">
  <path d="M150,50.390625 L150,71.25 C150,73.2812595 149.257819,75.0390555 147.773438,76.5234375 C146.289055,78.0078195 144.53126,78.75 142.5,78.75 L121.875,78.75 C122.421878,78.75 122.871092,78.574221 123.222657,78.222657 C123.574221,77.8710915 123.75,77.4218775 123.75,76.875 C123.75,76.3281225 123.574221,75.8789085 123.222657,75.527343 C122.871092,75.175779 122.421878,75 121.875,75 C121.328122,75 120.878908,75.175779 120.527343,75.527343 C120.175779,75.8789085 120,76.3281225 120,76.875 C120,77.4218775 120.175779,77.8710915 120.527343,78.222657 C120.878908,78.574221 121.328122,78.75 121.875,78.75 L7.5,78.75 C5.4687405,78.75 3.7109445,78.0078195 2.2265625,76.5234375 C0.7421805,75.0390555 0,73.2812595 0,71.25 L0,50.625 C3.125016,50.625 5.7812385,49.5312615 7.96875,47.34375 C10.1562615,45.1562385 11.25,42.500016 11.25,39.375 C11.25,36.249984 10.1562615,33.5937615 7.96875,31.40625 C5.7812385,29.2187385 3.125016,28.125 0,28.125 L0,7.5 C0,5.4687405 0.7421805,3.7109445 2.2265625,2.2265625 C3.7109445,0.7421805 5.4687405,0 7.5,0 L121.875,0 C121.328122,0 120.878908,0.175779 120.527343,0.527343 C120.175779,0.8789085 120,1.3281225 120,1.875 C120,2.4218775 120.175779,2.8710915 120.527343,3.222657 C120.878908,3.574221 121.328122,3.75 121.875,3.75 C122.421878,3.75 122.871092,3.574221 123.222657,3.222657 C123.574221,2.8710915 123.75,2.4218775 123.75,1.875 C123.75,1.3281225 123.574221,0.8789085 123.222657,0.527343 C122.871092,0.175779 122.421878,0 121.875,0 L142.5,0 C144.53126,0 146.289055,0.7421805 147.773438,2.2265625 C149.257819,3.7109445 150,5.4687405 150,7.5 L150,27.890625 C146.874984,27.890625 144.218762,28.9843635 142.03125,31.171875 C139.843739,33.3593865 138.75,36.015609 138.75,39.140625 C138.75,42.265641 139.843739,44.9218635 142.03125,47.109375 C144.218762,49.2968865 146.874984,50.390625 150,50.390625 L150,50.390625 Z M121.875,7.5 C121.328122,7.5 120.878908,7.675779 120.527343,8.027343 C120.175779,8.3789085 120,8.8281225 120,9.375 C120,9.9218775 120.175779,10.3710915 120.527343,10.722657 C120.878908,11.074221 121.328122,11.25 121.875,11.25 C122.421878,11.25 122.871092,11.074221 123.222657,10.722657 C123.574221,10.3710915 123.75,9.9218775 123.75,9.375 C123.75,8.8281225 123.574221,8.3789085 123.222657,8.027343 C122.871092,7.675779 122.421878,7.5 121.875,7.5 L121.875,7.5 Z M121.875,15 C121.328122,15 120.878908,15.175779 120.527343,15.527343 C120.175779,15.8789085 120,16.3281225 120,16.875 C120,17.4218775 120.175779,17.8710915 120.527343,18.222657 C120.878908,18.574221 121.328122,18.75 121.875,18.75 C122.421878,18.75 122.871092,18.574221 123.222657,18.222657 C123.574221,17.8710915 123.75,17.4218775 123.75,16.875 C123.75,16.3281225 123.574221,15.8789085 123.222657,15.527343 C122.871092,15.175779 122.421878,15 121.875,15 L121.875,15 Z M121.875,22.5 C121.328122,22.5 120.878908,22.675779 120.527343,23.027343 C120.175779,23.3789085 120,23.8281225 120,24.375 C120,24.9218775 120.175779,25.3710915 120.527343,25.722657 C120.878908,26.074221 121.328122,26.25 121.875,26.25 C122.421878,26.25 122.871092,26.074221 123.222657,25.722657 C123.574221,25.3710915 123.75,24.9218775 123.75,24.375 C123.75,23.8281225 123.574221,23.3789085 123.222657,23.027343 C122.871092,22.675779 122.421878,22.5 121.875,22.5 L121.875,22.5 Z M121.875,30 C121.328122,30 120.878908,30.175779 120.527343,30.527343 C120.175779,30.8789085 120,31.3281225 120,31.875 C120,32.4218775 120.175779,32.8710915 120.527343,33.222657 C120.878908,33.574221 121.328122,33.75 121.875,33.75 C122.421878,33.75 122.871092,33.574221 123.222657,33.222657 C123.574221,32.8710915 123.75,32.4218775 123.75,31.875 C123.75,31.3281225 123.574221,30.8789085 123.222657,30.527343 C122.871092,30.175779 122.421878,30 121.875,30 L121.875,30 Z M121.875,37.5 C121.328122,37.5 120.878908,37.675779 120.527343,38.027343 C120.175779,38.3789085 120,38.8281225 120,39.375 C120,39.9218775 120.175779,40.3710915 120.527343,40.722657 C120.878908,41.074221 121.328122,41.25 121.875,41.25 C122.421878,41.25 122.871092,41.074221 123.222657,40.722657 C123.574221,40.3710915 123.75,39.9218775 123.75,39.375 C123.75,38.8281225 123.574221,38.3789085 123.222657,38.027343 C122.871092,37.675779 122.421878,37.5 121.875,37.5 L121.875,37.5 Z M121.875,45 C121.328122,45 120.878908,45.175779 120.527343,45.527343 C120.175779,45.8789085 120,46.3281225 120,46.875 C120,47.4218775 120.175779,47.8710915 120.527343,48.222657 C120.878908,48.574221 121.328122,48.75 121.875,48.75 C122.421878,48.75 122.871092,48.574221 123.222657,48.222657 C123.574221,47.8710915 123.75,47.4218775 123.75,46.875 C123.75,46.3281225 123.574221,45.8789085 123.222657,45.527343 C122.871092,45.175779 122.421878,45 121.875,45 L121.875,45 Z M121.875,52.5 C121.328122,52.5 120.878908,52.675779 120.527343,53.027343 C120.175779,53.3789085 120,53.8281225 120,54.375 C120,54.9218775 120.175779,55.3710915 120.527343,55.722657 C120.878908,56.074221 121.328122,56.25 121.875,56.25 C122.421878,56.25 122.871092,56.074221 123.222657,55.722657 C123.574221,55.3710915 123.75,54.9218775 123.75,54.375 C123.75,53.8281225 123.574221,53.3789085 123.222657,53.027343 C122.871092,52.675779 122.421878,52.5 121.875,52.5 L121.875,52.5 Z M121.875,60 C121.328122,60 120.878908,60.175779 120.527343,60.527343 C120.175779,60.8789085 120,61.3281225 120,61.875 C120,62.4218775 120.175779,62.8710915 120.527343,63.222657 C120.878908,63.574221 121.328122,63.75 121.875,63.75 C122.421878,63.75 122.871092,63.574221 123.222657,63.222657 C123.574221,62.8710915 123.75,62.4218775 123.75,61.875 C123.75,61.3281225 123.574221,60.8789085 123.222657,60.527343 C122.871092,60.175779 122.421878,60 121.875,60 L121.875,60 Z M121.875,67.5 C121.328122,67.5 120.878908,67.675779 120.527343,68.027343 C120.175779,68.3789085 120,68.8281225 120,69.375 C120,69.9218775 120.175779,70.3710915 120.527343,70.722657 C120.878908,71.074221 121.328122,71.25 121.875,71.25 C122.421878,71.25 122.871092,71.074221 123.222657,70.722657 C123.574221,70.3710915 123.75,69.9218775 123.75,69.375 C123.75,68.8281225 123.574221,68.3789085 123.222657,68.027343 C122.871092,67.675779 122.421878,67.5 121.875,67.5 L121.875,67.5 Z M106.112954,31.8 L95.1719538,31.8 L95.1719538,46.5 L97.7549538,46.5 L97.7549538,40.515 L105.167954,40.515 L105.167954,38.163 L97.7549538,38.163 L97.7549538,34.152 L106.112954,34.152 L106.112954,31.8 Z M89.3152269,41.964 L81.4402269,31.8 L79.0462269,31.8 L79.0462269,46.5 L81.5872269,46.5 L81.5872269,36.042 L89.6932269,46.5 L91.8562269,46.5 L91.8562269,31.8 L89.3152269,31.8 L89.3152269,41.964 Z M73.6725,39.171 C73.6725,42.048 71.6355,44.379 68.7165,44.379 C65.7975,44.379 63.7185,42.006 63.7185,39.129 C63.7185,36.252 65.7555,33.921 68.6745,33.921 C71.5935,33.921 73.6725,36.294 73.6725,39.171 L73.6725,39.171 Z M76.3815,39.129 C76.3815,34.971 73.2315,31.548 68.7165,31.548 C64.2015,31.548 61.0095,35.013 61.0095,39.171 C61.0095,43.329 64.1595,46.752 68.6745,46.752 C73.1895,46.752 76.3815,43.287 76.3815,39.129 L76.3815,39.129 Z M59.8357731,44.148 L58.1767731,42.468 C56.9167731,43.644 55.7617731,44.379 53.9557731,44.379 C51.1417731,44.379 49.1047731,42.027 49.1047731,39.129 C49.1047731,36.231 51.1417731,33.921 53.9557731,33.921 C55.6357731,33.921 56.8957731,34.656 58.0717731,35.748 L59.7307731,33.837 C58.3237731,32.493 56.6857731,31.548 53.9767731,31.548 C49.5247731,31.548 46.3957731,34.971 46.3957731,39.171 C46.3957731,43.413 49.5877731,46.752 53.8717731,46.752 C56.6227731,46.752 58.3027731,45.744 59.8357731,44.148 L59.8357731,44.148 Z M36.2550462,35.643 C36.2550462,34.656 37.1370462,33.879 38.6490462,33.879 C39.9930462,33.879 41.3160462,34.404 42.6390462,35.391 L44.0250462,33.438 C42.5340462,32.241 40.8330462,31.59 38.6910462,31.59 C35.7720462,31.59 33.6720462,33.312 33.6720462,35.874 C33.6720462,38.604 35.4360462,39.528 38.5650462,40.284 C41.2950462,40.914 41.8830462,41.481 41.8830462,42.552 C41.8830462,43.686 40.8750462,44.421 39.2790462,44.421 C37.4520462,44.421 36.0450462,43.728 34.6380462,42.51 L33.0840462,44.358 C34.8480462,45.933 36.9690462,46.71 39.2160462,46.71 C42.3030462,46.71 44.4660462,45.072 44.4660462,42.3 C44.4660462,39.843 42.8490462,38.73 39.7410462,37.974 C36.9270462,37.302 36.2550462,36.798 36.2550462,35.643 L36.2550462,35.643 Z M30.9863192,41.502 L30.9863192,31.8 L28.3403192,31.8 L28.3403192,41.439 C28.3403192,43.392 27.3953192,44.316 26.0093192,44.316 C24.7703192,44.316 23.9093192,43.686 23.0483192,42.594 L21.3473192,44.337 C22.3133192,45.66 23.7833192,46.71 26.0513192,46.71 C28.9493192,46.71 30.9863192,44.988 30.9863192,41.502 L30.9863192,41.502 Z"></path>
</svg>
