<svg class="Svg Svg--call" viewBox="0 0 130 130">
  <path fill="#000000" d="M11.3169643,43.5267857 C11.3169643,54.7470801 16.1532261,63.0654496 25.8258929,68.4821429 L25.5357143,68.4821429 L24.9553571,68.1919643 L24.375,67.9017857 L23.5044643,67.9017857 C18.474677,67.5148797 14.122043,65.4352864 10.4464286,61.6629464 C6.77081414,57.8906064 4.44940971,53.2961576 3.48214286,47.8794643 C1.16070314,47.8794643 0,46.3318607 0,43.2366071 C0,40.5282596 1.06397757,38.980656 3.19196429,38.59375 C4.15923114,32.4032429 6.86753786,27.2284443 11.3169643,23.0691964 C15.7663907,18.9099486 20.8928274,16.8303571 26.6964286,16.8303571 L29.0178571,16.8303571 C23.7946169,18.9583439 19.5387066,22.4888151 16.25,27.421875 C12.9612934,32.3549349 11.3169643,37.7231846 11.3169643,43.5267857 L11.3169643,43.5267857 Z M125.647321,17.1205357 C128.549122,24.4717627 130,32.9835833 130,42.65625 C130,52.5223716 128.549122,61.0341903 125.647321,68.1919643 L124.776786,70.8035714 C123.035705,74.6726389 120.714301,77.9612953 117.8125,80.6696429 C114.136886,84.3452573 110.848229,86.2797613 107.946429,86.4732143 L107.075893,86.4732143 C105.141359,86.4732143 103.013404,85.9895883 100.691964,85.0223214 L97.7901786,83.5714286 C94.1145641,82.0238027 88.6979526,80.282748 81.5401786,78.3482143 C74.3824046,76.4136806 68.6756163,75.349703 64.4196429,75.15625 C62.4851091,79.0253174 61.324406,81.9270734 60.9375,83.8616071 C59.7767801,89.0848474 59.099703,94.9850869 58.90625,101.5625 C58.712797,108.333368 59.0029719,116.264835 59.7767857,125.357143 C59.7767857,125.550596 59.8251476,125.889134 59.921875,126.372768 C60.0186024,126.856401 60.0669643,127.19494 60.0669643,127.388393 C60.0669643,129.129474 59.1964379,130 57.4553571,130 L35.1116071,130 C33.3705264,130 32.5,129.419648 32.5,128.258929 L32.5,126.227679 C32.693453,122.358611 33.0319916,118.296152 33.515625,114.040179 C33.9992584,109.784205 34.57961,106.011921 35.2566964,102.723214 C35.9337829,99.4345077 36.61086,96.4360261 37.2879464,93.7276786 C37.9650329,91.019331 38.5937463,88.7946521 39.1741071,87.0535714 L40.0446429,84.1517857 C40.0446429,83.9583327 40.3348177,82.8459914 40.9151786,80.8147321 C41.4955394,78.7834729 41.8824399,76.9940544 42.0758929,75.4464286 C42.2693459,74.4791617 41.6889943,73.6569971 40.3348214,72.9799107 C38.9806486,72.3028243 37.2395939,71.5773853 35.1116071,70.8035714 C32.9836204,70.0297576 31.4360169,69.2559567 30.46875,68.4821429 C21.3764423,63.0654496 16.8303571,54.7470801 16.8303571,43.5267857 C16.8303571,37.7231846 18.4263226,32.3549349 21.6183036,27.421875 C24.8102846,22.4888151 28.9211056,18.9583439 33.9508929,16.8303571 L46.1383929,16.8303571 L51.6517857,16.8303571 C68.2887734,16.0565433 84.0549859,11.2202833 98.9508929,2.32142857 C99.1443459,2.32142857 99.337797,2.224703 99.53125,2.03125 C99.724703,1.837797 99.9181541,1.74107143 100.111607,1.74107143 C102.433047,0.580351571 104.754453,0 107.075893,0 C110.751507,0 114.33034,1.54760357 117.8125,4.64285714 C120.907754,7.73811071 123.22916,11.1234927 124.776786,14.7991071 C124.776786,14.9925601 124.873511,15.3794606 125.066964,15.9598214 C125.260417,16.5401823 125.453868,16.9270827 125.647321,17.1205357 L125.647321,17.1205357 Z M118.973214,68.4821429 C121.875015,61.3243689 123.325893,52.7158246 123.325893,42.65625 C123.325893,32.7901284 121.875015,24.2783097 118.973214,17.1205357 C116.458322,11.5103894 113.556564,8.70535714 110.267857,8.70535714 C107.172604,8.70535714 104.367571,11.5103894 101.852679,17.1205357 C98.950878,24.2783097 97.5,32.7901284 97.5,42.65625 C97.5,52.7158246 98.950878,61.3243689 101.852679,68.4821429 C104.561026,74.866103 107.366057,78.0580357 110.267857,78.0580357 C113.169658,78.0580357 116.071414,74.866103 118.973214,68.4821429 L118.973214,68.4821429 Z"></path>
</svg>
