<svg class="Svg Svg--logo" viewBox="0 0 190 131">
  <path fill="#000000" d="M165.190766,31.8954242 C165.19425,31.7219478 165.297519,31.45475 165.533624,31.0675876 C166.574422,29.3609605 164.576122,29.2777145 165.866659,27.8624608 C167.157234,26.4472102 168.57268,24.8238385 168.281293,23.1172113 C167.989865,21.4105873 166.865809,18.1222146 166.033216,18.6217124 C165.200586,19.1212101 164.784251,20.7029621 163.452066,20.120212 C162.119881,19.537462 162.494568,19.7872093 161.537066,19.7455863 C160.579529,19.7039634 160.496268,19.495839 160.454658,18.6217124 C160.41301,17.7475857 160.787696,17.6227137 159.871805,17.4978384 C158.955916,17.3729632 157.040919,17.3729632 159.746899,15.666336 C162.452917,13.959712 162.328049,13.0023394 162.328049,12.6277106 C162.328049,12.253088 160.496268,10.6713393 161.578676,9.71396351 C162.661084,8.7565846 163.327198,8.881463 164.742641,7.88246428 C166.158088,6.88346556 168.739238,5.63471004 167.65683,5.59308707 C166.574422,5.55146411 164.950809,5.96770961 164.243087,5.71796231 C163.535324,5.46821184 163.160679,5.13521227 161.45377,6.50883669 C159.746899,7.88246428 161.245641,8.34033909 159.41386,9.67233738 C157.582121,11.0043388 155.250748,10.9627127 155.250748,10.9627127 C155.250748,10.9627127 156.041769,15.2917135 155.000971,14.9587107 C153.960211,14.6257112 152.461469,12.7942151 151.420709,12.7942151 C150.379952,12.7942151 149.464061,12.7942151 149.422413,12.3363403 C149.380803,11.8784592 149.67219,11.3789614 149.255893,11.2957123 C148.839597,11.2124632 147.923708,11.7119641 148.881207,9.38096394 C149.838747,7.0499606 149.713838,6.71696103 148.839597,5.80121458 C147.965318,4.88546496 145.342596,4.71896043 145.342596,4.71896043 C145.342596,4.71896043 145.592374,1.22246333 144.052021,0.847840791 C142.511669,0.473211919 142.470021,-0.276039494 140.555021,1.05596196 C138.639944,2.38796025 139.514223,2.30471432 138.306906,2.05496068 C137.099589,1.80521337 137.057979,1.0975881 135.892313,1.5554629 C134.726647,2.01333771 134.934773,2.01333771 134.934773,2.51283549 C134.934773,3.0123396 135.809014,4.51083609 135.809014,5.42658887 C135.809014,6.34233849 135.892313,7.3413372 136.308609,8.67333866 C136.724906,10.0053401 138.057129,12.294711 136.475129,14.0845873 C134.893163,15.8744604 131.479424,17.5394614 130.272107,17.4978384 C129.06479,17.4562154 128.815013,14.4175868 126.858348,14.7089634 C124.9017,15.00034 124.443755,13.8348368 123.486216,17.2064618 C122.528717,20.57809 122.903403,18.413588 122.778494,19.1628363 C122.653626,19.9120877 122.112421,23.5334632 119.489661,23.4502109 C116.866901,23.366965 116.950159,22.4512122 116.284047,20.8278373 C115.617974,19.2044624 113.536416,17.4978384 111.746287,17.1232127 C109.956157,16.748587 107.000359,15.7079622 106.542415,16.6237118 C106.08447,17.5394614 106.375895,21.202463 106.750582,22.3679631 C107.125227,23.5334632 108.207635,24.3243376 108.207635,25.9893354 C108.207635,27.6543365 109.040265,27.4045892 108.915397,27.0299603 C108.790488,26.6553377 109.206785,26.4472102 109.414952,27.1132125 C109.623119,27.7792117 110.53897,29.11121 110.580621,32.0665895 C110.622231,35.0219595 110.913656,36.6453376 110.663879,36.7702128 C110.414102,36.8950881 108.915397,33.1488342 108.623972,31.5254624 C108.332544,29.9020844 108.290934,29.1528361 107.375045,28.5700861 C106.459157,27.987336 107.125227,26.322335 105.460007,25.5730868 C103.794745,24.8238385 102.795637,24.5740849 102.795637,24.5740849 C102.795637,24.5740849 103.045414,19.2877115 101.421801,18.4552142 C99.7981903,17.6227137 101.58832,18.1222146 100.464264,17.1648388 C99.340246,16.2074599 98.7574115,17.4562154 98.7574115,17.4562154 C98.7574115,17.4562154 99.2569848,16.2074599 98.5492538,15.7912144 C97.8415292,15.3749626 97.7582648,14.9170878 96.9672758,16.2907122 C96.1762868,17.6643366 96.0513935,17.6643366 96.0513935,17.6643366 C96.0513935,17.6643366 96.3428092,15.5830869 95.6767135,15.7079622 C95.0106178,15.8328374 93.6784233,17.0815866 93.4286367,17.6227137 C93.1788532,18.1638376 93.3453755,20.0785859 91.5552398,20.120212 C89.7651073,20.1618382 87.683556,20.0369629 87.6002948,22.0765865 C87.5363224,23.6436393 87.9392667,23.5890138 87.657404,23.8193812 L99.3834583,23.8193812 L99.3834583,87.8203141 C99.3834583,107.2355 88.0012708,116.072782 71.394875,116.072782 C67.9633727,116.072782 64.861266,115.666215 62.0645312,114.926866 C63.3234533,115.905636 64.3285502,116.710998 64.3285502,116.710998 L72.5428107,124.837288 C72.5428107,124.837288 79.8433327,123.895424 85.9663518,126.721021 C92.089371,129.546627 93.0313688,130.017556 93.0313688,130.017556 C93.0313688,130.017556 97.5058847,131.430359 104.570902,128.604753 C111.635928,125.779156 112.106932,126.956488 115.874926,121.305292 C119.642924,115.654099 121.762444,114.241299 128.356479,114.005834 C128.807297,113.989736 129.228394,113.975839 129.622329,113.963541 C120.039113,110.830976 113.399329,104.499322 109.566667,96.9271193 L124.831979,88.0898375 C128.850479,94.6514074 134.073104,99.471563 143.313042,99.471563 C146.024057,99.471563 148.392255,98.99861 150.326732,98.1551572 C151.342816,97.3276053 152.304447,96.706788 153.162551,96.3990182 C155.010287,94.7991439 156.034729,92.66796 156.034729,90.2321729 C156.034729,83.8051668 150.946292,81.5286634 142.375313,77.7806649 L137.689438,75.7709145 C124.163021,70.014353 115.190271,62.7839217 115.190271,47.5196339 C115.190271,33.460484 125.9035,22.7480157 142.643688,22.7480157 C152.118134,22.7480157 159.476942,25.3712975 165.190766,31.8954242 Z M165.418031,32.1579919 C165.800359,32.2084822 166.60121,31.8383939 167.323753,31.4422102 C168.614328,30.734588 169.238792,30.5680867 170.196291,30.4432114 C171.15383,30.3183362 172.777441,29.1528361 173.235388,29.1944623 C173.693291,29.2360852 173.526775,29.5690848 173.360256,30.6097128 C173.193737,31.6503377 172.610925,32.1914616 175.108775,34.147836 C177.606629,36.1042105 178.897204,36.1042105 180.895463,35.8960862 C182.893759,35.6879618 181.894613,36.1458366 182.519073,37.3945858 C183.143537,38.6433382 183.934557,38.8930823 184.72554,38.4768368 C185.516519,38.060585 185.641429,39.142836 186.265892,39.6423337 C186.890356,40.1418347 186.973614,40.2667099 186.682188,40.807837 C186.39076,41.3489577 186.515669,41.3073348 186.34915,43.1804601 C186.182634,45.0535855 185.849558,45.6363355 184.72554,46.0942103 C183.601481,46.552082 185.391613,47.0099568 185.266742,47.4262086 C185.141836,47.8424605 182.810501,48.5917087 182.810501,48.5917087 C182.810501,48.5917087 184.808798,48.5084596 186.140983,48.5500826 C187.473168,48.5917087 187.473168,48.9663344 187.889505,49.6323336 C188.305799,50.2983359 187.265042,51.3805869 186.931966,51.9217076 C186.598927,52.4628347 179.813055,53.4202104 181.894613,53.0455816 C183.976167,52.670959 187.722986,52.9207063 187.722986,52.9207063 C187.722986,52.9207063 187.556429,55.9177088 188.097631,56.2090854 C188.638837,56.5004557 189.429858,54.5440844 189.429858,54.5440844 C189.429858,54.5440844 190.095931,57.6659589 189.762893,57.9157094 C189.429858,58.1654567 189.637984,58.0405815 189.554726,58.207086 C189.471468,58.3735842 188.930262,60.9543317 186.765446,61.162456 C184.600631,61.3705835 184.72554,57.7492112 181.395055,59.1228325 C178.064574,60.4964569 181.894613,60.6629583 183.018669,61.0792101 C184.142686,61.4954588 185.391613,62.6193327 186.099373,63.1188337 C186.807098,63.6183315 187.514819,62.6193327 187.514819,63.9097081 C187.514819,65.2000865 182.227686,64.3259599 182.227686,64.3259599 C182.227686,64.3259599 186.525201,65.7351915 186.525201,66.9125237 C186.525201,68.0898559 182.757165,67.6189237 182.757165,67.6189237 L183.934674,68.0898559 C183.934674,68.0898559 185.818692,67.8543882 184.170176,68.7962559 C182.521663,69.7381204 182.521663,70.4445203 182.757165,71.8573202 C182.992667,73.270117 180.637684,73.5055847 178.989171,73.7410556 C177.340655,73.9765169 178.282662,73.9765169 176.634149,72.3282525 C174.985633,70.679988 173.57266,70.2090526 173.57266,70.2090526 C173.57266,70.2090526 174.985633,72.5637202 175.927641,73.5055847 C176.869651,74.4474555 178.989171,75.8602491 178.989171,75.8602491 C178.989171,75.8602491 175.692139,78.2149167 175.221135,82.9242487 C175.030393,84.8315313 174.878274,85.7346268 174.592689,86.1810116 C173.219838,73.1255416 164.466095,66.7609307 149.873979,60.5078141 L145.187313,58.4996468 C137.153083,55.0180055 133.670938,52.7415021 133.670938,47.1175255 C133.670938,42.5657061 137.153083,39.0844606 142.643688,39.0844606 C148.000104,39.0844606 151.481063,41.3605682 154.695229,47.1175255 L169.292375,37.7451547 C168.094422,35.6357815 166.805271,33.7796304 165.418031,32.1579919 Z M80.6356042,27.852607 C80.4157817,27.7646999 80.2313168,27.6259817 80.1067107,27.3629599 C79.7320275,26.5720855 78.5663617,23.9913348 77.941895,22.3679631 C77.3174315,20.7445882 76.6513327,17.830838 74.9028292,18.1638376 C73.1543257,18.4968371 70.8229877,18.7882106 70.6148332,21.3689644 C70.4066787,23.9497119 72.7796488,28.4868401 72.7380167,32.3579598 C72.6963845,36.2290857 73.23759,38.7265841 69.4491642,39.3509603 C65.6607415,39.9753333 67.1594552,38.6433382 66.8264073,37.3945858 C66.4933658,36.1458366 66.5349948,34.8554613 63.5791902,38.1438372 C60.6233887,41.43221 60.5401243,43.5134597 60.748282,45.0535855 C60.9564365,46.5937113 61.6641643,49.4242092 61.2894843,49.4658322 C60.9148043,49.5074615 59.4577165,45.1784607 59.207933,45.303336 C58.9581463,45.428208 58.7499918,44.8454612 58.7499918,46.0942103 C58.7499918,47.3429595 58.7499918,54.1278326 58.375315,54.1694619 C58.0006318,54.2110848 57.5010617,53.9197082 56.9182272,50.5480832 C56.3353895,47.1764613 56.127235,45.1784607 55.5444005,44.8038319 C54.9615692,44.4292093 55.0448303,44.1794588 54.0873158,44.6789566 C53.1298045,45.1784607 53.004908,44.9703332 54.170577,43.4718367 C55.336246,41.9733339 55.8774483,39.3509603 54.9615692,39.0179607 C54.0456868,38.6849612 52.9216468,39.9753333 52.9216468,39.9753333 C52.9216468,39.9753333 54.8991225,38.018962 53.2130625,37.6027102 C51.5270088,37.1864615 49.4038253,37.4153973 49.0083308,34.9595251 C48.6128363,32.5036497 49.9242132,34.376775 50.9441743,34.8138352 C51.9641323,35.2509017 53.2546978,35.3133361 53.8583468,34.3143374 C54.4619958,33.3153387 55.0031982,32.8158346 53.5877457,32.129024 C52.17229,31.4422102 53.379588,31.9208996 54.0456868,31.4213987 C54.7117825,30.9219009 55.710926,29.964522 55.939895,28.3827732 C56.1688672,26.8010245 56.6684373,25.8228372 55.3778782,25.1776496 C54.0873158,24.5324619 54.4203637,25.0944005 53.5877457,24.5948995 C52.7551213,24.0954017 53.3587735,23.9705233 52.2763657,24.0745871 C51.193961,24.1786477 52.3804445,23.6791499 53.7959002,23.366965 C55.2113527,23.0547737 55.7941903,23.0547737 54.8783048,21.8476475 C53.9624225,20.6405276 53.7959002,21.9933374 53.1089868,21.7852099 C52.4220735,21.5770887 51.3396688,21.0567731 52.0473967,20.6405276 C52.7551213,20.2242758 52.6510457,19.6415257 51.9641323,19.2252739 C51.277219,18.8090252 50.7152022,19.0587725 50.631941,19.9537138 C50.5486767,20.8486488 50.402972,21.3273351 50.1948143,21.2440891 C49.9866598,21.1608369 50.7152022,19.9328992 49.8617665,19.9953368 C49.0083308,20.0577744 48.8418053,19.7247717 48.9458842,19.2877115 C49.0499598,18.8506514 49.0291453,17.7059628 48.8001763,17.5810875 C48.5712042,17.4562154 48.8001763,17.2272765 48.9458842,16.9150884 C49.091592,16.6028971 49.0499598,15.5206525 48.1340807,14.9587107 C47.2181983,14.3967753 46.9267795,14.6048997 46.1774195,13.7723992 C45.4280627,12.9398987 44.845225,13.6683386 44.845225,13.6683386 C44.845225,13.6683386 45.8860038,12.6693399 45.5737705,12.1698358 C45.2615372,11.670338 44.8244137,11.399776 44.199947,11.3373384 C43.5754803,11.2749008 43.408958,10.4424003 43.2008003,10.9419012 C42.9926458,11.441399 42.0975812,12.1282128 42.1392102,11.4622136 C42.1808392,10.7962145 42.3889968,10.5672755 41.63964,10.8586521 C40.89028,11.1500224 41.2649568,10.0885861 41.3898502,9.13121347 C41.5147435,8.17383772 41.82698,8.06977713 41.1608812,7.9449019 C40.4947855,7.82002666 40.8070157,7.69514826 40.8278333,7.40377482 C40.84867,7.11239822 40.2241843,6.71696103 40.14092,6.38396145 C40.0576588,6.05096188 39.9327655,6.17583712 39.537271,5.88446368 C39.1417765,5.59308707 39.3707487,4.94790258 38.9336188,4.71896043 C38.4964953,4.49002777 37.8303997,3.49102589 37.6014275,4.32352324 C37.3724553,5.15602692 36.643913,3.57427499 36.1859718,3.28290155 C35.7280307,2.99152495 35.0203028,2.05496068 34.8121483,3.0955887 C34.6039938,4.13621355 34.3542072,3.82402546 34.0627883,4.21946265 C33.7713727,4.61489984 33.292617,4.4067755 32.4808103,3.55346351 C31.6690037,2.70015151 30.2743657,1.49302529 29.8996888,2.28389967 C29.5250088,3.07477405 29.5250088,3.22046393 28.2344465,3.34533917 C26.9438842,3.47021124 26.1737097,3.28290155 26.8189908,4.42759015 C27.4642752,5.57227242 27.9013987,6.32152384 27.3601932,6.59208896 C26.8189908,6.86265091 26.1737097,6.59208896 25.7365862,6.48802837 C25.2994595,6.38396145 24.5500995,6.63371193 25.7157495,7.52865006 C26.8814153,8.42358502 27.6515898,8.86065151 28.5466577,8.73577628 C29.4417255,8.61090104 31.4400125,6.67533806 31.5440913,6.88346556 C31.648167,7.0915899 30.5033188,8.1114001 31.1694145,8.29870979 C31.8355102,8.48602581 32.0644792,8.42358502 32.397527,8.17383772 C32.7305748,7.92408725 33.6048282,7.40377482 33.4591172,8.36114741 C33.3134093,9.31852632 33.2717772,9.48502453 34.3958172,9.56827363 C35.519854,9.65152589 36.3732897,8.98552358 36.3732897,9.33933781 C36.3732897,9.69314886 35.2076207,10.546464 35.4990363,10.6505246 C35.7904552,10.7545852 37.8303743,10.4424003 37.4556975,10.7337769 C37.0810207,11.0251503 36.123503,11.3165238 35.9569775,11.5246513 C35.7904552,11.7327756 35.4365897,12.4195862 35.332514,12.0865867 C35.2284352,11.7535871 32.2518192,10.5048379 31.2318612,10.6089016 C30.2119,10.7129622 29.6706945,11.2540893 29.1711243,11.3165238 C28.671551,11.3789614 27.8181153,12.0657752 28.5466577,13.0023394 C29.2752,13.9388974 30.8363667,15.3333364 32.397527,15.9785273 C33.9586905,16.6237118 32.6473137,17.1024012 33.4799348,16.9358999 C34.3125528,16.7694017 34.0419517,17.2897109 34.541525,17.5810875 C35.0410952,17.872461 35.707194,18.4343995 36.310843,18.413588 C36.914492,18.3927544 37.6430375,18.2054605 36.8936775,18.7673991 C36.1443207,19.3293345 36.123503,20.5364607 36.5606297,20.6613359 C36.9977563,20.7862112 38.1634222,24.2827114 37.809563,25.4065886 C37.4556975,26.5304625 36.0402418,29.4858357 36.4357363,27.8208378 C36.8312308,26.15584 37.060203,23.7207729 36.0610563,23.8456481 C35.0619128,23.9705233 34.3541882,25.3441509 34.4582638,24.4492096 C34.5623395,23.5542747 33.2093337,19.2669 31.9812148,19.7247717 C30.7531023,20.1826465 30.7531023,24.0121495 30.628209,22.9715278 C30.5033188,21.9308998 30.5033188,20.7445882 29.4833545,22.0349635 C28.4633933,23.3253357 30.0037423,20.9527125 29.4417255,20.4115855 C28.8797055,19.8704616 28.1719808,20.1826465 27.7764863,20.5156492 C27.3809887,20.8486488 28.1095342,19.7455863 27.9846377,19.0171496 C27.8597443,18.2887128 27.963801,16.7902131 26.756522,17.4145861 C25.549224,18.0389623 26.3193985,16.9150884 25.3827017,15.666336 C24.4460017,14.4175868 22.6142338,12.4820238 20.9906265,12.7525858 C19.3670132,13.0231478 17.8058529,13.4185849 18.305423,14.459213 C18.8049964,15.4998378 21.5110144,15.4998378 18.8466254,15.2084612 C16.1822395,14.9170878 16.6609984,16.0825879 17.472805,17.0815866 C18.2846054,18.0805853 21.5526434,20.4324001 19.6167999,19.6623372 C17.6809595,18.8922743 14.8292305,16.748587 14.3296604,18.0805853 C13.8300839,19.4125867 14.1423204,21.2857121 17.7434062,24.5324619 C21.3444857,27.7792117 18.5135775,25.6563359 17.2854619,25.6979588 C16.0573462,25.7395881 15.2455427,23.6791499 14.1006882,23.7624022 C12.9558369,23.8456481 12.1440302,23.6999646 13.0807302,26.2599006 C14.017427,28.8198334 14.8500482,29.6107141 17.1605685,30.1310265 C19.471092,30.6513358 22.8015738,30.0477743 22.884835,30.6097128 C22.9680993,31.1716482 22.884835,31.4005872 20.5743144,31.6919606 C18.263794,31.9833372 18.0140042,31.5670854 18.118083,32.3995891 C18.2221587,33.2320864 19.9082187,33.9397085 19.8249544,34.376775 C19.7416932,34.8138352 19.845791,35.8752715 19.1796764,35.8544632 C18.5135775,35.8336296 18.118083,35.1260264 17.8474819,35.5422719 C17.5768807,35.9585238 17.4103584,36.0209614 16.952414,34.647337 C16.494476,33.2737094 15.9116384,32.5660873 14.6835259,31.9417143 C13.455407,31.3173381 9.39638318,27.6543365 8.73028752,28.0081507 C8.06419185,28.3619617 7.77277302,29.0487755 8.27234318,30.5888982 C8.77191968,32.129024 9.35475102,33.2112718 10.4996055,33.9605232 C11.64446,34.7097746 12.3105557,35.3549623 11.8942467,35.4382114 C11.4779345,35.5214636 8.56376202,33.8564626 8.35560752,34.3559604 C8.14745302,34.8554613 10.9159177,37.9357097 10.5828699,38.1854634 C10.249822,38.4352107 9.50046202,38.4768368 7.50217185,36.7910243 C5.50388168,35.1052118 5.46225268,34.3975897 4.17169035,34.7930269 C2.88112802,35.1884641 3.54722685,37.2280876 2.77704918,37.6859624 C2.00687785,38.1438372 1.69464135,37.9149014 1.27833552,38.5392744 C0.86202335,39.1636443 0.0293990167,39.8920842 0.27918885,40.0377709 C0.528975517,40.1834608 4.25495152,39.9337103 5.33735935,40.2875214 C6.41976402,40.6413325 9.25067535,41.4738361 9.45883302,41.9108963 C9.66698435,42.3479564 9.33393652,43.6591464 9.91677418,43.9505199 C10.4996055,44.2418965 12.9350192,44.4708323 13.4345957,44.0962097 C13.9341659,43.721584 14.392107,42.6601477 15.8283804,42.4312087 C17.2646474,42.2022729 18.4511309,41.8692733 18.7633674,41.5778967 C19.0755975,41.2865201 19.0339654,41.0575843 20.4910564,41.5570631 C21.948141,42.056564 22.5934225,41.9316888 22.7391303,41.5986892 C22.884835,41.2656896 22.6766837,37.6026912 23.4884872,38.4351917 C24.3002938,39.267689 25.5700385,40.1418157 26.0071683,39.9336913 C26.4442918,39.7255638 26.8814153,37.6443173 27.3601742,37.9356907 C27.8389298,38.2270673 27.6724043,39.0595647 28.0054522,38.8930633 C28.3385032,38.7265651 29.2127533,37.8108155 29.4625432,38.3311279 C29.7123298,38.8514404 29.420911,40.4956267 30.1702678,40.0585634 C30.9196278,39.6215001 31.7522458,39.9336913 32.2518223,40.4956267 C32.7513925,41.0575653 34.6664183,38.7265651 34.7913117,39.5798771 C34.9162018,40.4331891 34.770475,41.9525003 35.4157783,41.7235644 C36.0610563,41.4946255 37.8720097,40.6829396 37.5597763,41.4113795 C37.247543,42.1398163 36.4981862,42.1190016 36.872863,42.8474384 C37.247543,43.5758752 38.9960465,45.1160009 39.4123587,45.0535633 C39.8286677,44.9911289 39.8494822,44.9494996 39.8494822,44.9494996 C39.8494822,44.9494996 41.1608622,41.6403122 42.2016347,42.1190016 C43.2424103,42.5976911 44.054217,42.6393141 44.2207425,43.8672518 C44.3872648,45.0951895 43.3464892,44.3875642 44.5954193,44.7621899 C45.8443495,45.1368124 47.6553028,44.6581261 47.4679628,45.3449368 C47.2806228,46.0317506 46.8851283,45.7195656 45.3864083,46.3439387 C43.8876947,46.9683148 43.4922002,46.8226249 43.0967057,47.3845667 C42.7012112,47.9464989 41.1816735,48.487626 40.4323198,49.0495645 C39.6829598,49.6114999 38.7878888,50.3191252 37.705481,50.4648119 C36.6230795,50.6105018 36.1859497,52.1922506 35.4574073,52.6293139 C34.728865,53.0663741 33.896247,54.1902512 33.7713537,54.5856884 C33.6464603,54.9811256 33.0844403,55.8760637 33.7921903,56.1674371 C34.499915,56.4588137 34.9786738,55.8760637 36.081893,56.5420628 C37.1851185,57.2080651 39.8495012,58.5608749 41.8061623,58.3735621 C43.7628203,58.1862492 45.4696917,56.2298779 45.5113238,55.9176867 C45.552956,55.6055017 46.343945,54.1694397 47.1141163,55.1268123 C47.884294,56.084188 47.1973807,56.9375 47.0100407,57.7283744 C46.8227038,58.5192519 46.0317085,60.1426268 46.156605,61.2873123 C46.2814983,62.4320009 46.156605,62.1406274 45.9068183,62.1198128 C45.6570317,62.0989791 40.7862012,62.286311 39.39156,61.703561 C37.996922,61.1208141 37.3516408,60.5172494 36.2900507,60.6005017 C35.2284605,60.6837476 32.272659,60.9959388 32.1061335,61.5578742 C31.9396112,62.1198128 31.7730857,62.8690642 31.2318802,62.6193106 C30.6906778,62.3695633 30.3368155,61.0999994 29.0462532,61.4954366 C27.755694,61.8908738 26.8398053,62.6193106 26.215345,62.4320009 C25.5908752,62.244688 25.6533218,61.8076279 24.9247795,62.1614358 C24.1962372,62.51525 24.2586838,62.3695633 24.1754195,62.8898757 C24.0921615,63.410185 24.9664085,64.5965029 24.487656,64.2843116 C24.0088972,63.9721267 23.9672682,63.4518143 23.550956,63.597501 C23.134647,63.7431877 23.0930148,64.0761873 22.947307,64.4716245 C22.801596,64.8670648 22.801596,64.4300015 22.8640427,63.7639992 C22.9264893,63.098 23.176276,61.5786889 22.5309948,61.9533114 C21.8857165,62.3279403 21.1779855,61.5370659 20.740862,63.2020638 C20.3037354,64.8670648 20.8865699,65.2000644 20.5327044,65.1168153 C20.1788452,65.033563 19.804162,64.3051262 19.200513,63.9305005 C18.5968609,63.5558748 16.5361272,63.410185 16.1198182,63.8472514 C15.703506,64.2843116 14.4337614,65.5122525 13.2889069,65.4498149 C12.1440524,65.3873772 11.3946955,65.3249396 10.6037065,64.3883754 C9.81271752,63.4518143 8.02257868,64.9295024 7.85605635,65.1584382 C7.68953085,65.3873772 7.87689302,65.6579392 7.31485402,65.7411851 C6.75283718,65.8244374 5.96184502,65.4914378 6.64875518,67.3645632 C7.33566852,69.2376886 7.85605635,71.6103117 10.0208689,72.0681865 C12.1856845,72.5260613 12.6019967,71.5686887 13.4762437,70.6321276 C14.350497,69.6955634 14.7251802,69.4250014 15.8700284,69.8412501 C17.0148829,70.2574988 17.3687484,69.9869368 17.8475072,69.5082505 C18.3262597,69.0295642 18.8882797,69.0503757 22.4893658,69.8204386 C26.0904517,70.5904983 28.4842363,70.611313 29.0878822,71.0275648 C29.6915312,71.4438135 30.9820967,71.9849374 31.4816668,71.6727493 C31.9812402,71.3605644 33.2301703,70.7361882 33.8754483,70.9859355 C34.5207327,71.2356892 34.458286,71.8600622 34.3125782,72.2138764 C34.1668672,72.5676906 34.4374683,73.7331875 34.9786738,74.0037495 C35.5198793,74.2743114 35.0827495,75.0651858 34.7913338,75.5022491 C34.499915,75.9393125 33.0428303,75.9601271 34.6248083,77.5834988 C36.2067863,79.2068769 35.249275,80.3515592 35.2700895,80.6845619 C35.2909262,81.0175615 34.9786738,82.1414386 35.7696628,81.1424399 C36.5606518,80.143438 37.2683797,82.4119974 37.5181663,83.3901878 C37.767953,84.3683719 38.1842652,85.1592462 39.1834087,84.5348732 C40.182549,83.9104971 39.9327655,82.8074378 40.9527267,82.4119974 C41.9726878,82.0165602 42.513887,82.0373749 43.4714047,81.267312 C44.4289192,80.4972491 45.9276328,79.8520614 45.3239838,81.3089381 C44.7203348,82.7658116 43.263247,82.5576873 42.7636768,83.3277502 C42.2641035,84.0978067 40.9943557,85.4089936 40.7862012,86.6161198 C40.5780435,87.823246 40.4323388,87.9273066 40.7862012,88.3435584 C41.1400667,88.7598071 42.2641035,87.9273066 41.3898502,88.8638677 C40.5155968,89.8004319 39.349931,90.6953701 39.8911365,91.1532449 C40.4323388,91.6111197 41.119249,92.0065569 42.284918,91.7151803 C43.450587,91.42381 44.803596,89.8628696 45.4488772,89.5090585 C46.0941552,89.1552443 46.427203,87.7608084 49.278932,88.3019323 C52.1306578,88.8430594 51.7143488,88.676558 50.8817245,89.0719952 C50.0491065,89.4674324 50.2780787,89.52987 49.0291453,89.4466209 C47.7802152,89.3633718 47.5928752,89.8420581 47.322274,90.0918085 C47.0516728,90.3415559 46.947594,90.6745586 45.9276328,90.9451205 C44.9076717,91.2156825 43.0550925,93.942123 43.0550925,94.1502505 C43.0550925,94.3583749 42.7636768,94.6081253 43.9917893,95.2324984 C45.2199082,95.8568745 45.8443717,97.2721251 45.0117505,97.625933 C44.1791293,97.9797472 41.8477913,98.1254371 41.8477913,98.4792513 C41.8477913,98.8330592 42.2432858,99.9569363 41.722898,99.9777478 C41.2025102,99.9985815 40.7653867,99.7280005 40.5572322,100.664562 C40.3490745,101.601126 41.0151733,101.850873 39.7454255,102.121438 C38.4756777,102.392 37.3516408,103.349373 36.7063628,103.245312 C36.0610817,103.141245 35.0619382,102.620936 33.8338193,103.848874 C32.6057068,105.076808 31.9604225,104.868684 31.752268,104.764623 C31.5441135,104.660563 30.9820967,105.014374 30.3159978,103.120437 C29.6499022,101.226497 28.4634187,100.061 27.9846598,100.622935 C27.5059042,101.184874 27.422643,101.934125 27.3185642,103.245312 C27.2144885,104.556499 26.3610497,104.951936 27.1312242,105.326562 C27.9013987,105.701188 28.0054775,105.992564 27.5267187,106.845873 C27.047963,107.699185 26.6316508,107.948936 26.7773618,108.510874 C26.9230697,109.07281 27.0687807,109.364186 26.860623,110.092623 C26.6524685,110.821063 25.9655552,111.382998 27.3185642,111.591123 C28.6715732,111.799247 30.9404645,111.278934 31.5441135,111.112433 C32.1477625,110.945935 33.3758782,109.801246 35.4157973,110.446437 C37.4557197,111.091625 38.2050765,110.821063 38.787911,110.841874 C39.3707487,110.862708 42.0351345,110.841874 42.472258,110.592121 C42.9093815,110.342373 43.8877137,109.426624 44.4705482,110.196683 C45.0533827,110.96675 45.4488772,111.944937 47.2181983,111.715998 C48.9875163,111.487062 48.716912,111.299749 50.0491065,111.174874 C51.3812978,111.049995 51.1523257,110.696188 51.5894555,110.321559 C51.7102051,110.218074 51.8341319,110.111413 51.9932653,110.025265 C48.1021825,107.022869 45.2556886,103.140216 43.2725,98.9340992 L43.2725,98.9356823 L58.5397917,89.6974795 C61.4851875,94.918952 64.1645833,99.3366034 70.5913333,99.3366034 C76.7516875,99.3366034 80.6356042,96.9271984 80.6356042,87.5551442 L80.6356042,27.852607 Z"></path>
</svg>
