<svg class="Svg Svg--tonkvisl" viewBox="0 0 150 150">
  <path d="M8.99022801,109.739414 L42.2638436,90.5374593 C44.267101,89.3648208 45.5374593,90.3420195 46.1726384,91.465798 C46.8566775,92.5895765 47.0521173,94.1530945 45.0488599,95.3257329 L11.7752443,114.527687 L13.0456026,116.677524 L46.1726384,97.5732899 C48.9087948,96.009772 49.8859935,93.9087948 49.1042345,91.5635179 L59.8045603,85.3583062 C60.5374593,85.7003257 61.4169381,85.6514658 62.1498371,85.2605863 C63.3713355,84.5765472 63.8110749,82.9641694 63.0781759,81.742671 C62.3941368,80.5211726 60.781759,80.0814332 59.5602606,80.8143322 C58.8273616,81.2540717 58.3876221,81.9869707 58.2899023,82.7687296 L47.5407166,88.9739414 C45.732899,86.970684 43.5830619,86.8729642 40.7491857,88.485342 L7.71986971,107.540717 L8.99022801,109.739414 L8.99022801,109.739414 Z"></path>
  <path d="M35.276873,138.029316 L54.4788274,104.7557 C55.6514658,102.752443 57.2149837,102.947883 58.3387622,103.583062 C59.4625407,104.267101 60.4397394,105.488599 59.267101,107.491857 L40.0651466,140.765472 L42.2149837,142.035831 L61.3192182,108.908795 C62.8827362,106.172638 62.6872964,103.925081 60.8306189,102.214984 L67.0358306,91.514658 C67.8175896,91.4169381 68.5993485,90.9771987 68.990228,90.2442997 C69.6742671,89.0228013 69.2833876,87.4592834 68.0618893,86.7263844 C66.8403909,86.0423453 65.276873,86.4332248 64.5439739,87.6547231 C64.1042345,88.3876221 64.1042345,89.267101 64.4462541,90 L58.2410423,100.749186 C55.7003257,99.9185668 53.7459283,100.895765 52.1335505,103.729642 L33.0781759,136.758958 L35.276873,138.029316 L35.276873,138.029316 Z"></path>
  <path d="M72.2149837,149.413681 L72.2149837,111.009772 C72.2149837,108.664495 73.6807818,108.078176 75,108.078176 C76.3192182,108.078176 77.7850163,108.664495 77.7850163,111.009772 L77.7850163,149.413681 L80.276873,149.413681 L80.276873,111.156352 C80.276873,107.980456 78.9576547,106.123779 76.514658,105.586319 L76.514658,93.2247557 C77.1498371,92.7850163 77.5895765,92.0032573 77.5895765,91.1237785 C77.5895765,89.7068404 76.4169381,88.5830619 75,88.5830619 C73.5830619,88.5830619 72.4592834,89.7068404 72.4592834,91.1237785 C72.4592834,92.0032573 72.8990228,92.7361564 73.534202,93.2247557 L73.534202,105.635179 C70.9446254,106.221498 69.723127,108.029316 69.723127,111.254072 L69.723127,149.413681 L72.2149837,149.413681 L72.2149837,149.413681 Z"></path>
  <path d="M109.885993,140.814332 L90.6840391,107.540717 C89.5114007,105.537459 90.4885993,104.267101 91.6123779,103.631922 C92.7361564,102.996743 94.2996743,102.752443 95.4723127,104.7557 L114.674267,138.029316 L116.824104,136.807818 L97.7198697,103.680782 C96.1563518,100.944625 94.0553746,99.9674267 91.7100977,100.749186 L85.504886,90 C85.8469055,89.267101 85.8469055,88.3876221 85.4071661,87.6547231 C84.6742671,86.4332248 83.1107492,85.9934853 81.8892508,86.7263844 C80.6677524,87.4104235 80.228013,89.0228013 80.9609121,90.2442997 C81.4006515,90.9771987 82.1335505,91.465798 82.9153094,91.514658 L89.1205212,102.263844 C87.1172638,104.071661 87.019544,106.221498 88.6319218,109.055375 L107.687296,142.084691 L109.885993,140.814332 L109.885993,140.814332 Z"></path>
  <path d="M138.224756,114.478827 L104.95114,95.276873 C102.947883,94.1042345 103.143322,92.5407166 103.778502,91.4169381 C104.413681,90.2931596 105.684039,89.3159609 107.687296,90.4885993 L140.960912,109.690554 L142.23127,107.540717 L109.104235,88.4364821 C106.368078,86.8729642 104.071661,87.0684039 102.410423,88.9250814 L91.6612378,82.7198697 C91.6123779,81.9381107 91.1237785,81.1563518 90.3908795,80.7166124 C89.1693811,80.0325733 87.6058632,80.4234528 86.8729642,81.6449511 C86.1889251,82.8664495 86.5798046,84.4299674 87.8013029,85.1628664 C88.534202,85.6026059 89.4136808,85.6026059 90.1465798,85.2605863 L100.895765,91.465798 C100.065147,94.0065147 101.042345,95.9609121 103.876221,97.5732899 L136.905537,116.628664 L138.224756,114.478827 L138.224756,114.478827 Z"></path>
  <path d="M149.560261,77.5895765 L111.156352,77.5895765 C108.811075,77.5895765 108.224756,76.1237785 108.224756,74.8045603 C108.224756,73.485342 108.811075,72.019544 111.156352,72.019544 L149.560261,72.019544 L149.560261,69.5276873 L111.351792,69.5276873 C108.175896,69.5276873 106.319218,70.8469055 105.781759,73.2899023 L93.4201954,73.2899023 C92.9315961,72.6547231 92.1986971,72.2149837 91.3192182,72.2149837 C89.9022801,72.2149837 88.7296417,73.3876221 88.7296417,74.8045603 C88.7296417,76.2214984 89.9022801,77.3452769 91.3192182,77.3452769 C92.1986971,77.3452769 92.9315961,76.9055375 93.4201954,76.2703583 L105.830619,76.2703583 C106.416938,78.8599349 108.224756,80.0814332 111.449511,80.0814332 L149.609121,80.0814332 L149.609121,77.5895765 L149.560261,77.5895765 Z"></path>
  <path d="M140.960912,39.9185668 L107.687296,59.1205212 C105.684039,60.2931596 104.413681,59.3159609 103.778502,58.1921824 C103.094463,57.0684039 102.899023,55.504886 104.95114,54.3322476 L138.224756,35.1302932 L136.954397,32.980456 L103.827362,52.0846906 C101.091205,53.6482085 100.114007,55.7491857 100.895765,58.0944625 L90.1954397,64.2996743 C89.4625407,63.9576547 88.5830619,63.9576547 87.8501629,64.3973941 C86.6286645,65.1302932 86.1889251,66.6938111 86.9218241,67.9153094 C87.6058632,69.1368078 89.218241,69.5765472 90.4397394,68.8436482 C91.1726384,68.4039088 91.6123779,67.6710098 91.7100977,66.8892508 L102.459283,60.6840391 C104.267101,62.6872964 106.416938,62.7850163 109.250814,61.1726384 L142.28013,42.1172638 L140.960912,39.9185668 L140.960912,39.9185668 Z"></path>
  <path d="M114.674267,11.5798046 L95.4723127,44.8534202 C94.2996743,46.8566775 92.7361564,46.6612378 91.6123779,46.0260586 C90.4885993,45.3908795 89.5114007,44.1205212 90.6840391,42.1172638 L109.885993,8.79478827 L107.736156,7.52442997 L88.6319218,40.6514658 C87.0684039,43.3876221 87.2638436,45.6351792 89.1205212,47.3452769 L82.9153094,58.0944625 C82.1335505,58.1921824 81.3517915,58.6319218 80.9609121,59.3648208 C80.276873,60.5863192 80.6677524,62.1498371 81.8892508,62.8827362 C83.1107492,63.6156352 84.6742671,63.1758958 85.3583062,61.9543974 C85.7980456,61.2214984 85.7980456,60.3420195 85.4560261,59.6091205 L91.6612378,48.8599349 C94.2019544,49.6905537 96.1563518,48.713355 97.7687296,45.8794788 L116.824104,12.8501629 L114.674267,11.5798046 L114.674267,11.5798046 Z"></path>
  <path d="M77.7361564,0.195439739 L77.7361564,38.5993485 C77.7361564,40.9446254 76.2703583,41.5309446 75,41.5309446 C73.6807818,41.5309446 72.2149837,40.9446254 72.2149837,38.5993485 L72.2149837,0.195439739 L69.723127,0.195439739 L69.723127,38.4527687 C69.723127,41.6286645 71.0423453,43.485342 73.485342,44.0228013 L73.485342,56.3843648 C72.8501629,56.8729642 72.4104235,57.6058632 72.4104235,58.485342 C72.4104235,59.9022801 73.5830619,61.0749186 75,61.0749186 C76.4169381,61.0749186 77.5407166,59.9022801 77.5407166,58.485342 C77.5407166,57.6058632 77.1009772,56.8729642 76.465798,56.3843648 L76.465798,43.9739414 C79.1042345,43.4364821 80.276873,41.5798046 80.276873,38.3550489 L80.276873,0.195439739 L77.7361564,0.195439739 L77.7361564,0.195439739 Z"></path>
  <path d="M40.0651466,8.84364821 L59.267101,42.1172638 C60.4397394,44.1205212 59.4625407,45.3908795 58.3387622,46.0260586 C57.2149837,46.6612378 55.6514658,46.9055375 54.4788274,44.8534202 L35.276873,11.5798046 L33.1270358,12.8013029 L52.2312704,45.9283388 C53.7947883,48.6644951 55.8957655,49.5928339 58.2410423,48.8599349 L64.4462541,59.6091205 C64.1042345,60.3420195 64.1530945,61.2214984 64.5439739,61.9543974 C65.276873,63.1758958 66.8403909,63.6156352 68.0618893,62.8827362 C69.2833876,62.1986971 69.723127,60.5863192 68.990228,59.3648208 C68.5504886,58.6319218 67.8175896,58.1921824 67.0358306,58.0944625 L60.8306189,47.3452769 C62.8338762,45.5374593 62.9315961,43.3876221 61.3192182,40.5537459 L42.2638436,7.52442997 L40.0651466,8.84364821 L40.0651466,8.84364821 Z"></path>
  <path d="M11.7752443,35.1302932 L45.0488599,54.3322476 C47.0521173,55.504886 46.8566775,57.0684039 46.2214984,58.1921824 C45.5374593,59.3159609 44.3159609,60.2931596 42.3127036,59.1205212 L9.03908795,39.9185668 L7.76872964,42.0684039 L40.8957655,61.1726384 C43.6319218,62.7361564 45.8794788,62.5407166 47.5895765,60.732899 L58.2899023,66.9381107 C58.3876221,67.7198697 58.8273616,68.5016287 59.5602606,68.9413681 C60.781759,69.6254072 62.3452769,69.2345277 63.0781759,68.0130293 C63.8110749,66.7915309 63.3713355,65.228013 62.1498371,64.495114 C61.4169381,64.0553746 60.5374593,64.0553746 59.8045603,64.3973941 L49.0553746,58.1921824 C49.8859935,55.6514658 48.9087948,53.6970684 46.0749186,52.0846906 L13.0456026,33.029316 L11.7752443,35.1302932 L11.7752443,35.1302932 Z"></path>
  <path d="M0.390879479,72.0684039 L38.7947883,72.0684039 C41.1400651,72.0684039 41.7263844,73.534202 41.7263844,74.8534202 C41.7263844,76.1726384 41.1400651,77.6384365 38.7947883,77.6384365 L0.390879479,77.6384365 L0.390879479,80.1302932 L38.5993485,80.1302932 C41.7752443,80.1302932 43.6319218,78.8110749 44.1693811,76.3680782 L56.5309446,76.3680782 C56.970684,77.0032573 57.752443,77.4429967 58.6319218,77.4429967 C60.0488599,77.4429967 61.2214984,76.3192182 61.2214984,74.9022801 C61.2214984,73.485342 60.0488599,72.3615635 58.6319218,72.3615635 C57.752443,72.3615635 57.019544,72.8013029 56.5309446,73.4364821 L44.1205212,73.4364821 C43.534202,70.7980456 41.7263844,69.6254072 38.5016287,69.6254072 L0.342019544,69.6254072 L0.390879479,72.0684039 L0.390879479,72.0684039 Z"></path>
</svg>
