<?xml version="1.0" encoding="utf-8"?>
<svg version="1.1" id="Layer_1" xmlns="http://www.w3.org/2000/svg" xmlns:xlink="http://www.w3.org/1999/xlink" x="0px" y="0px"
	 viewBox="0 0 986 313" style="enable-background:new 0 0 986 313;" xml:space="preserve">
<g>
	<path style="fill:#56575C;" d="M83.5,99.6c2.7,4.2,3.9,7.9,5.4,15.8c10.6-10.3,23.6-15.8,37.9-15.8c12.9,0,23.4,4.2,31.6,12.7
		c2.2,2.1,4.3,4.9,6.2,7.6c14.2-14.6,26.9-20.3,44-20.3c12.1,0,23.6,3.6,30.7,9.7c8.8,7.6,11.6,16.7,11.6,37.9v110.4h-39.5V155.1
		c0-18.6-2.2-22.2-12.8-22.2c-7.6,0-18.2,5.2-27,13.1v111.7H133V156.6c0-19.4-2.8-23.9-14.1-23.9c-7.5,0-17.9,3.9-26.6,11.8v113.2
		H52.6V149.3c0-22.4-1.5-32.1-5.8-39.7L83.5,99.6z"/>
	<path style="fill:#56575C;" d="M396,122.6c12.4,14.6,18,31.5,18,56.7c0,26.7-6.1,44.9-19.5,60.1c-11.8,13.3-27.3,21.6-51.2,21.6
		c-42.2,0-69.8-31.6-69.8-80.4c0-48.9,27.8-81.3,69.8-81.3C365.4,99.2,382.7,106.8,396,122.6z M322.9,145
		c-2.8,8.2-4.3,19.1-4.3,34.6c0,17.9,1.8,31.3,5.1,39.1c3.7,8.5,12.8,12.7,20.6,12.7c17.6,0,25.1-15.8,25.1-52.5
		c0-20.9-2.7-34.6-8.2-41.6c-3.9-5.1-10.2-8.2-17.6-8.2C334.1,129.3,326.2,135.3,322.9,145z"/>
	<path style="fill:#56575C;" d="M544.7,102.3v27.9l-68.6,99.2h71.3l-9.7,28.2H423.3v-25.2l73-101.6h-66.9v-28.5H544.7z"/>
	<path style="fill:#56575C;" d="M613.5,59.5c0,14-11.1,25.1-25.2,25.1c-13.6,0-24.8-11.2-24.8-25.1c0-13.9,11.6-25.2,25.5-25.2
		C602.6,34.3,613.5,45.6,613.5,59.5z M608.7,98.6v159H568V105L608.7,98.6z"/>
	<path style="fill:#56575C;" d="M682.7,73.5v121c0,26.7,0.3,30.3,2.8,34.6c1.5,2.8,4.8,4.2,8.2,4.2c1.5,0,2.3,0,4.5-0.6l6.9,24.2
		c-6.9,2.7-15.5,4.2-24.3,4.2c-17.3,0-31.3-8.2-36.1-21.2c-3-7.9-3.7-12.8-3.7-34.9V89.2c0-20.3-0.5-32.7-2-46.7l41.6-9.4
		C682.1,41.6,682.7,51.6,682.7,73.5z"/>
	<path style="fill:#56575C;" d="M767,73.5v121c0,26.7,0.3,30.3,2.8,34.6c1.4,2.8,4.7,4.2,8.1,4.2c1.5,0,2.5,0,4.6-0.6l6.9,24.2
		c-6.9,2.7-15.4,4.2-24.3,4.2c-17.3,0-31.3-8.2-36.1-21.2c-3.1-7.9-3.6-12.8-3.6-34.9V89.2c0-20.3-0.6-32.7-2.2-46.7l41.5-9.4
		C766.5,41.6,767,51.6,767,73.5z"/>
	<path style="fill:#56575C;" d="M830.8,108.1c15.1-6.4,28.1-9.1,42.4-9.1c26.1,0,44,9.7,50.1,27c2,6.4,2.9,11.2,2.8,27.9l-1,52.2
		c0,0.9,0,1.9,0,2.8c0,16.7,2.8,23.1,14.6,31.8l-21.6,24.9c-9.5-4-18-11-21.9-18.8c-3,3.1-6.4,6-9.4,8.2c-7.5,5.5-18.5,8.5-31.3,8.5
		c-34.6,0-53.4-17.6-53.4-48.5c0-36.5,25.2-53.5,74.7-53.5c3,0,5.8,0,9.1,0.3v-6.3c0-17.3-3.4-23.1-18.3-23.1
		c-12.9,0-28.2,6.3-44.8,17.6l-17.3-29.1C813.8,115.6,819.9,112.6,830.8,108.1z M883.5,189.7c-28.1,0-38,5.1-38,23.7
		c0,12.1,7.7,20.3,18,20.3c7.6,0,15.2-4,21.2-10.6l0.7-33.4H883.5z"/>
</g>
</svg>
