<?xml version="1.0" encoding="UTF-8" standalone="no"?>
<svg
   xmlns:dc="http://purl.org/dc/elements/1.1/"
   xmlns:cc="http://creativecommons.org/ns#"
   xmlns:rdf="http://www.w3.org/1999/02/22-rdf-syntax-ns#"
   xmlns:svg="http://www.w3.org/2000/svg"
   xmlns="http://www.w3.org/2000/svg"
   version="1.1"
   width="451.52499"
   height="384.08749"
   id="svg3653"
   xml:space="preserve"><metadata
     id="metadata3659"><rdf:RDF><cc:Work
         rdf:about=""><dc:format>image/svg+xml</dc:format><dc:type
           rdf:resource="http://purl.org/dc/dcmitype/StillImage" /><dc:title></dc:title></cc:Work></rdf:RDF></metadata><defs
     id="defs3657"><clipPath
       id="clipPath3669"><path
         d="m 0,0 3612,0 0,3072.7 -3612,0 L 0,0 z"
         id="path3671" /></clipPath></defs><g
     transform="matrix(1.25,0,0,-1.25,0,384.0875)"
     id="g3661"><g
       transform="scale(0.1,0.1)"
       id="g3663"><g
         id="g3665"><g
           clip-path="url(#clipPath3669)"
           id="g3667"><path
             d="m 393.406,24.5312 -192.375,0 0,577.1288 -201.031,0 0,162.922 594.434,0 0,-162.922 -201.028,0 0,-577.1288"
             id="path3673"
             style="fill:#222122;fill-opacity:1;fill-rule:nonzero;stroke:none" /><path
             d="m 857.996,601.66 0,-123.672 255.264,0 0,-162.929 -255.264,0 0,-127.598 267.054,0 0,-162.9298 -459.445,0 0,740.0508 459.445,0 0,-162.922 -267.054,0"
             id="path3675"
             style="fill:#222122;fill-opacity:1;fill-rule:nonzero;stroke:none" /><path
             d="m 1325.26,764.582 189.44,0 150.16,-395.543 159,395.543 191.39,0 111.89,-740.0508 -192.38,0 -53.98,425.9808 -1.96,0 -177.66,-425.9808 -76.55,0 -169.8,425.9808 -1.95,0 -61.84,-425.9808 -191.38,0 125.62,740.0508"
             id="path3677"
             style="fill:#222122;fill-opacity:1;fill-rule:nonzero;stroke:none" /><path
             d="m 2394.16,424.98 32.38,0 c 69.71,0 138.4,0 138.4,90.309 0,93.242 -63.79,94.223 -138.4,94.223 l -32.38,0 0,-184.532 z m -192.39,339.602 294.48,0 c 158.98,0 268.92,-73.602 268.92,-243.41 0,-174.711 -94.24,-251.254 -262.07,-251.254 l -108.94,0 0,-245.3868 -192.39,0 0,740.0508"
             id="path3679"
             style="fill:#222122;fill-opacity:1;fill-rule:nonzero;stroke:none" /><path
             d="m 2993.84,407.32 c 0,-127.59 94.22,-220.84 209.07,-220.84 114.82,0 209.06,93.25 209.06,220.84 0,102.071 -94.24,195.321 -209.06,195.321 -114.85,0 -209.07,-93.25 -209.07,-195.321 z m 618.36,0.981 C 3612.2,168.809 3440.42,0 3202.91,0 c -237.54,0 -409.28,168.809 -409.28,408.301 0,223.769 196.29,380.82 409.28,380.82 212.98,0 409.29,-157.051 409.29,-380.82"
             id="path3681"
             style="fill:#222122;fill-opacity:1;fill-rule:nonzero;stroke:none" /><path
             d="m 2032.32,2361.17 -275.01,-274.99 c -9.45,-9.46 -24.79,-9.46 -34.24,0 l -113.79,113.78 c -9.45,9.44 -24.78,9.44 -34.25,0 l -130.8,-130.83 c -9.45,-9.46 -9.45,-24.79 0,-34.25 l 280.55,-280.54 c 9.45,-9.46 24.8,-9.46 34.24,0 l 440.06,440.04 c 9.47,9.46 9.47,24.8 0,34.26 l -132.52,132.53 c -9.48,9.45 -24.81,9.45 -34.24,0"
             id="path3683"
             style="fill:#222122;fill-opacity:1;fill-rule:evenodd;stroke:none" /><path
             d="m 1806.09,2697.67 c 349.41,0 632.66,-283.24 632.66,-632.65 0,-349.4 -283.25,-632.65 -632.66,-632.65 -349.4,0 -632.64,283.25 -632.64,632.65 0,349.41 283.24,632.65 632.64,632.65 z m 0.01,232.67 c -477.14,0 -865.319,-388.18 -865.319,-865.31 0,-477.14 388.179,-865.34 865.319,-865.34 477.14,0 865.32,388.2 865.32,865.34 0,477.13 -388.18,865.31 -865.32,865.31"
             id="path3685"
             style="fill:#5ecbf5;fill-opacity:1;fill-rule:nonzero;stroke:none" /><path
             d="m 1806.1,2925.47 c 55.63,0 110.03,-5.37 162.74,-15.5 L 1806.1,3072.7 c -556.52,0 -1007.678,-451.15 -1007.678,-1007.68 l 162.726,162.73 c 76.292,396.9 426.132,697.72 844.952,697.72"
             id="path3687"
             style="fill:#3a94b9;fill-opacity:1;fill-rule:evenodd;stroke:none" /><path
             d="m 2651.05,1902.31 c -76.27,-396.92 -426.11,-697.75 -844.95,-697.75 -55.62,0 -110,5.37 -162.72,15.5 l 162.72,-162.72 c 556.53,0 1007.68,451.16 1007.68,1007.68 l -162.73,-162.71"
             id="path3689"
             style="fill:#3a94b9;fill-opacity:1;fill-rule:evenodd;stroke:none" /><path
             d="m 2666.56,2065.03 c 0,-55.62 -5.37,-110.01 -15.51,-162.72 l 162.73,162.71 c 0,556.53 -451.15,1007.68 -1007.68,1007.68 l 162.74,-162.73 c 396.9,-76.29 697.72,-426.13 697.72,-844.94"
             id="path3691"
             style="fill:#71c82d;fill-opacity:1;fill-rule:evenodd;stroke:none" /><path
             d="m 945.648,2065.03 c 0,55.62 5.372,110.01 15.5,162.72 L 798.422,2065.02 c 0,-556.52 451.158,-1007.68 1007.678,-1007.68 l -162.72,162.72 c -396.91,76.29 -697.732,426.13 -697.732,844.97"
             id="path3693"
             style="fill:#f68712;fill-opacity:1;fill-rule:evenodd;stroke:none" /></g></g></g></g></svg>
